<svg xmlns="http://www.w3.org/2000/svg" xmlns:xlink="http://www.w3.org/1999/xlink" id="Layer_2" data-name="Layer 2" version="1.1" viewBox="0 0 150 100">
  <defs>
    <style>
      .cls-1 {
        fill: #8ed2e4;
      }

      .cls-1, .cls-2, .cls-3, .cls-4, .cls-5 {
        stroke-width: 0px;
      }

      .cls-2 {
        fill: url(#linear-gradient);
      }

      .cls-3 {
        fill: #41bcd8;
      }

      .cls-4 {
        fill: #00a4ca;
      }

      .cls-5 {
        fill: #008fbe;
      }
    </style>
    <linearGradient id="linear-gradient" x1="75.6" y1="110.4" x2="71.8" y2="54.1" gradientTransform="translate(0 102) scale(1 -1)" gradientUnits="userSpaceOnUse">
      <stop offset="0" stop-color="#c6007e"/>
      <stop offset="1" stop-color="#dd92b3"/>
    </linearGradient>
  </defs>
  <path class="cls-5" d="M90.5,89.6l32.6,5.7-1.3,4.7h-29.1l-2.2-10.4ZM27.8,100h28.7l3.6-15.7-38.5-6.8,6.3,22.5Z"/>
  <path class="cls-2" d="M139.2,38.2l-24.4-4.3L123.8,0h26.2l-10.8,38.2ZM26.6,0H0l4,14.4,27.5,4.8L26.6,0ZM74.5,20.9h.7c.3,1.4.7,3.5,1.4,6.3l20.7,3.6L89.9,0h-29.4l-5.8,23.3,18.6,3.3c.5-2.5,1-4.4,1.2-5.7h0Z"/>
  <path class="cls-4" d="M107,72.5l21.5,3.8-5.4,19.1-32.6-5.7-4.5-20.8,19.2,3.4c.2,1.9.3,3.5.4,4.9h.7c.1-1.2.3-2.8.6-4.6h0ZM64.5,65.1l-18.5-3.2c-.5,2.9-.9,5.7-1.3,8.4-.4,2.9-.6,5.2-.7,6.9h-.7c-.4-2.3-.8-5.5-1.3-9.4-.3-2.2-.6-4.5-1-6.8l-25.2-4.4,5.9,21,38.5,6.8,4.3-18.9c0-.1,0-.2,0-.3h0Z"/>
  <path class="cls-3" d="M110.2,53.1l23.7,4.1-5.4,19.1-21.5-3.8c.2-1.3.4-2.8.7-4.5.6-4,1.3-8.1,2.1-12.5.2-.9.3-1.7.5-2.5ZM68.9,45.8l-19-3.3-1.4,5.5c-.2,1-.6,2.7-1,5.1-.4,2.4-.9,5.2-1.4,8.2,0,.2,0,.3,0,.5l18.5,3.2c.5-2.2,1.2-5.2,2.1-9.2.7-3.2,1.5-6.5,2.3-10h0ZM103,56.2c-.3-1.8-.6-3.3-.9-4.6l-20.7-3.6c.6,2.7,1.2,5.3,1.7,7.7.9,4.1,1.6,7.2,2.1,9.3l.8,3.8,19.2,3.4c-.1-1.3-.3-2.8-.5-4.4-.5-3.9-1.1-7.7-1.8-11.5ZM40.1,55.4c-.7-4.2-1.4-7.9-2.2-11.1l-1-4.1-26.9-4.7,5.9,21,25.2,4.4c-.3-1.8-.5-3.7-.8-5.5h0Z"/>
  <path class="cls-1" d="M139.2,38.2l-5.4,19.1-23.7-4.2c.6-3.3,1.3-6.2,2-8.8l2.7-10.4,24.4,4.3h0ZM31.5,19.3L4,14.5l5.9,21,26.9,4.7-5.3-20.9h0ZM68.9,45.8c.2-1.1.5-2.1.7-3.2,1.1-4.7,2.1-9,3-13,.2-1.1.5-2.1.7-3l-18.6-3.3-4.8,19.2,19,3.3h0ZM77.2,29.6c1,4,2,8.3,3,13,.4,1.9.8,3.7,1.2,5.4l20.7,3.6c-.3-1.5-.5-2.7-.7-3.7l-4.1-17.2-20.7-3.6c.2.8.4,1.5.6,2.4h0Z"/>
</svg>