<svg xmlns="http://www.w3.org/2000/svg" xmlns:xlink="http://www.w3.org/1999/xlink" id="Layer_3" data-name="Layer 3" viewBox="0 0 541.7 238.2"><defs><style>.cls-1{fill:#1d1d1d;}.cls-2{fill:url(#New_Gradient_Swatch_2);}.cls-3{fill:#da0812;}.cls-4{fill:url(#New_Gradient_Swatch_2-2);}.cls-5{fill:url(#New_Gradient_Swatch_2-3);}</style><linearGradient id="New_Gradient_Swatch_2" x1="257.1" y1="146.71" x2="263.66" y2="89.15" gradientUnits="userSpaceOnUse"><stop offset="0.28" stop-color="#da0812"/><stop offset="0.39" stop-color="#dc1111"/><stop offset="0.57" stop-color="#e0290d"/><stop offset="0.8" stop-color="#e65107"/><stop offset="1" stop-color="#ed7901"/></linearGradient><linearGradient id="New_Gradient_Swatch_2-2" x1="425.15" y1="202.67" x2="434.32" y2="122.21" xlink:href="#New_Gradient_Swatch_2"/><linearGradient id="New_Gradient_Swatch_2-3" x1="424.32" y1="207.68" x2="433.86" y2="123.89" xlink:href="#New_Gradient_Swatch_2"/></defs><path class="cls-1" d="M16.29,189.08a9.86,9.86,0,0,0,6.11,2.62,4.67,4.67,0,0,0,4.94-5c0-2.41-.92-4.06-3.31-5.51l-2.86-1.72c-3.71-2.27-5.09-4.54-5.09-9,0-5.78,3.31-10.18,8.35-10.18a12,12,0,0,1,5.5,1.24l-.2,4.95A10,10,0,0,0,24.64,165c-2.8,0-4.28,2.06-4.28,4.82s1.53,4.4,4.38,5.92l1.53.82a9.53,9.53,0,0,1,5.14,8.95c0,6.06-2.39,10.88-8.35,10.88a12.31,12.31,0,0,1-7-2.07Z"/><path class="cls-1" d="M37.17,180.06c0,8.13,2.34,11.91,7.08,11.91,2.14,0,4.48-1.44,6-2.89l.2,5.23a13.8,13.8,0,0,1-7.28,2.07c-6.88,0-10.44-7-10.44-18s3.56-18,10-18c5.86,0,9.11,6.33,9.11,16.66v3.09Zm10.39-4.4c0-7.3-1.68-10.95-5.1-10.95-2.75,0-5.19,2.76-5.29,10.95Z"/><path class="cls-1" d="M54.08,168.36c0-2.55-.16-5.09-.21-7.57H58l.15,5.23h.1c1.38-4,3.57-5.71,6.42-5.71s4.79,1.92,6.11,5.5c1.38-3.44,3.36-5.5,6.32-5.5,4.48,0,7.53,3.51,7.53,11.22V195.9H80.36V171.8c0-4.47-1.43-6.54-4-6.54-3.15,0-4.89,2.62-4.89,9V195.9H67.22V171.8c0-4.47-1.43-6.54-4-6.54-3.15,0-4.88,2.62-4.88,9V195.9H54.08Z"/><path class="cls-1" d="M89.07,163.2a11.37,11.37,0,0,1,7.33-2.89,8.66,8.66,0,0,1,6.93,3.3c1.12,1.52,2.24,3.65,2.24,8.61v18.31c0,2.06.1,4.13.2,5.37H101.9l-.25-4.75h-.1c-1.18,2.68-3.31,5.23-7.29,5.23-4.28,0-7.48-3.38-7.48-10.12S90.09,174.42,99,174.42h2.49v-1.58c0-2.62-.15-4.13-1-5.65A4.66,4.66,0,0,0,96.2,165a8.16,8.16,0,0,0-6.67,3.65Zm12.42,15.49a18.75,18.75,0,0,0-3-.14c-5,0-7.44,3.23-7.44,7.3,0,3.71,1.43,6.12,4.38,6.12,3.72,0,6.06-4.06,6.06-8.88Z"/><path class="cls-1" d="M127.52,197.41c0,9.71-5.4,13.77-11.1,13.77a19.35,19.35,0,0,1-7.59-2.14l.2-5.85a12,12,0,0,0,7.13,3c5.25,0,7.29-4.2,7.29-10.26v-5.5h-.11c-1.68,4-4,5.92-6.82,5.92-5.35,0-9-5.92-9-18s3.61-18,9.42-18c2.6,0,4.94,2.2,6.36,5.57h.11l.15-5.09h4.12c0,2.06-.2,4.27-.2,6.4Zm-10-5.71c3.92,0,5.7-4.55,5.7-13.36S121.46,165,117.54,165s-5.7,4.54-5.7,13.35S113.62,191.7,117.54,191.7Z"/><path class="cls-1" d="M131.24,146.3h4.28v49.6h-4.28Z"/><path class="cls-1" d="M157.67,188.32c0,2.55.16,5.1.21,7.58h-4.13l-.15-5.24h-.1c-1.38,4-3.57,5.72-6.57,5.72-4.54,0-7.59-3.51-7.59-11.22V160.79h4.28v22.65c0,5.57,1.52,8,4.27,8,3.37,0,5.51-3.17,5.51-9.5V160.79h4.27Z"/><path class="cls-1" d="M172.85,195.48a9.28,9.28,0,0,1-3.61.9c-3.93,0-6-2.14-6-8.33V165.47H159.1v-4.68h4.13v-7.16l4.27-1.72v8.88h5.35v4.68H167.5v20.72c0,4,.77,5.51,2.7,5.51a5,5,0,0,0,2.65-.9Z"/><path class="cls-1" d="M179.58,148.36v6.89h-4.69v-6.89Zm-4.49,12.43h4.28V195.9h-4.28Z"/><path class="cls-1" d="M201.88,189.42c0,2.14.15,4.34.21,6.48H198l-.15-5.17h-.1c-1.12,2.76-3.06,5.65-6.83,5.65-5.35,0-9-5.92-9-18s3.61-18,9-18c3,0,4.89,1.58,6.62,5.3h.1V146.3h4.28ZM191.9,165c-3.92,0-5.7,4.54-5.7,13.35s1.78,13.36,5.7,13.36,5.7-4.55,5.7-13.36S195.82,165,191.9,165Z"/><path class="cls-1" d="M208.61,180.06c0,8.13,2.34,11.91,7.08,11.91,2.13,0,4.48-1.44,5.95-2.89l.21,5.23a13.8,13.8,0,0,1-7.28,2.07c-6.88,0-10.44-7-10.44-18s3.56-18,10-18c5.85,0,9.11,6.33,9.11,16.66v3.09Zm10.39-4.4c0-7.3-1.68-10.95-5.1-10.95-2.75,0-5.19,2.76-5.29,10.95Z"/><path class="cls-1" d="M238.91,148.36v6.89h-4.68v-6.89Zm-4.48,12.43h4.28V195.9h-4.28Z"/><path class="cls-1" d="M242.63,168.36c0-2.55-.15-5.09-.2-7.57h4.12l.15,5.23h.11c1.37-4,3.56-5.71,6.56-5.71,4.54,0,7.59,3.51,7.59,11.22V195.9h-4.27V173.25c0-5.58-1.53-8-4.28-8-3.36,0-5.5,3.17-5.5,9.5V195.9h-4.28Z"/><path class="cls-1" d="M260.66,205.88a8.37,8.37,0,0,0,1.88.34c1.79,0,2.25-1,2.25-4.61V160.79h4.27v41.58c0,5.92-1.27,8.81-5.95,8.81a4.82,4.82,0,0,1-2.45-.62Zm8.61-57.52v6.89h-4.69v-6.89Z"/><path class="cls-1" d="M276.3,180.06c0,8.13,2.34,11.91,7.08,11.91,2.13,0,4.48-1.44,5.95-2.89l.21,5.23a13.81,13.81,0,0,1-7.29,2.07c-6.87,0-10.43-7-10.43-18s3.56-18,10-18c5.85,0,9.11,6.33,9.11,16.66v3.09Zm10.38-4.4c0-7.3-1.68-10.95-5.09-10.95-2.75,0-5.19,2.76-5.29,10.95Z"/><path class="cls-1" d="M308.79,166.92a7.68,7.68,0,0,0-4.94-1.66c-4.18,0-7.13,3.93-7.13,13.43,0,8.12,2.85,12.73,7,12.73a9,9,0,0,0,5.24-1.86l.21,5.3a12.09,12.09,0,0,1-5.45,1.52c-7.74,0-11.51-7.78-11.51-17.69,0-11.36,4.38-18.38,11.61-18.38a9.94,9.94,0,0,1,5.14,1.37Z"/><path class="cls-1" d="M324.32,195.48a9.24,9.24,0,0,1-3.61.9c-3.92,0-6-2.14-6-8.33V165.47h-4.13v-4.68h4.13v-7.16l4.28-1.72v8.88h5.34v4.68H319v20.72c0,4,.76,5.51,2.7,5.51a4.92,4.92,0,0,0,2.64-.9Z"/><path class="cls-1" d="M330.84,148.36v6.89h-4.68v-6.89Zm-4.48,12.43h4.28V195.9h-4.28Z"/><path class="cls-1" d="M343.73,160.31c6.87,0,10.44,7,10.44,18s-3.57,18-10.44,18-10.44-7-10.44-18S336.85,160.31,343.73,160.31Zm0,31.39c4.07,0,6-4.55,6-13.36s-1.89-13.35-6-13.35-6,4.54-6,13.35S339.65,191.7,343.73,191.7Z"/><path class="cls-1" d="M356.31,168.36c0-2.55-.15-5.09-.2-7.57h4.12l.15,5.23h.11c1.37-4,3.56-5.71,6.57-5.71,4.53,0,7.58,3.51,7.58,11.22V195.9h-4.27V173.25c0-5.58-1.53-8-4.28-8-3.36,0-5.5,3.17-5.5,9.5V195.9h-4.28Z"/><path class="cls-1" d="M387.06,175.79c3.8,0,4.62,5.31,4.62,10.19s-.82,10.2-4.62,10.2-4.63-5.31-4.63-10.2S383.27,175.79,387.06,175.79Zm0,17.72c1.66,0,2-3.15,2-7.53s-.35-7.53-2-7.53-2,3.16-2,7.53S385.42,193.51,387.06,193.51Z"/><path class="cls-1" d="M392.75,192.2h2.52v3.7h-2.52Z"/><path class="cls-1" d="M404.63,176.07v2.78h-5.07v4.55a4.53,4.53,0,0,1,1.66-.26c2.25,0,4.08,2.22,4.08,6.11,0,4.37-1.95,6.93-5,6.93a8.6,8.6,0,0,1-3.39-.82l.17-3a4.49,4.49,0,0,0,2.74,1c1.76,0,2.77-1.62,2.77-3.86,0-2-.9-3.69-3-3.69a5.39,5.39,0,0,0-2.44.62V176.07Z"/><path class="cls-1" d="M408.49,183.65c0-1.05,0-1.84-.08-2.38H411c0,.76.08,1.53.08,2.3h0c.4-1.14,1.24-2.53,2.74-2.53a3,3,0,0,1,2.73,2.33c.52-1,1.3-2.33,2.9-2.33,2.35,0,3.11,2.27,3.11,5.82v9H420v-9.24c0-1.81-.42-2.72-1.38-2.72-1.16,0-1.77,1.47-1.77,3.09v8.87h-2.61v-9.24c0-1.81-.42-2.72-1.38-2.72-1.16,0-1.77,1.47-1.77,3.09v8.87h-2.61Z"/><path class="cls-1" d="M424.64,198.17a5.71,5.71,0,0,0,3.19,1.25c2.46,0,2.86-2.3,2.86-4.6v-1.4h0c-.42,1.14-1.16,2.48-2.86,2.48-1.51,0-3.78-1.37-3.78-7.28,0-4,1.07-7.58,3.91-7.58,1.57,0,2.31,1.22,2.86,2.5h.08c0-.77.06-1.51.08-2.27h2.36c0,.76-.09,1.53-.09,2.3v10.79c0,4.58-1,7.84-5,7.84a8.52,8.52,0,0,1-3.72-.91Zm3.76-4.86c1.64,0,2.29-1.59,2.29-4.91,0-3.07-.86-4.72-2.1-4.69s-1.89,1.73-1.89,4.72C426.7,191.86,427.52,193.31,428.4,193.31Z"/><path class="cls-1" d="M446.43,180.25l-1.95,2.47-1.24-2.45,3.57-4.2H449V195.9h-2.61Z"/><path class="cls-1" d="M454.23,183.65c0-1.05,0-1.84-.08-2.38h2.6c0,.76.09,1.53.09,2.3h0c.4-1.14,1.24-2.53,2.73-2.53a3,3,0,0,1,2.74,2.33c.52-1,1.3-2.33,2.9-2.33,2.35,0,3.11,2.27,3.11,5.82v9h-2.61v-9.24c0-1.81-.42-2.72-1.39-2.72-1.15,0-1.76,1.47-1.76,3.09v8.87H460v-9.24c0-1.81-.42-2.72-1.39-2.72-1.15,0-1.76,1.47-1.76,3.09v8.87h-2.61Z"/><path class="cls-1" d="M470.33,198.17a5.71,5.71,0,0,0,3.2,1.25c2.46,0,2.86-2.3,2.86-4.6v-1.4h-.05c-.42,1.14-1.15,2.48-2.85,2.48-1.52,0-3.79-1.37-3.79-7.28,0-4,1.07-7.58,3.91-7.58,1.58,0,2.31,1.22,2.86,2.5h.08c0-.77.07-1.51.09-2.27H479c0,.76-.08,1.53-.08,2.3v10.79c0,4.58-1,7.84-5,7.84a8.57,8.57,0,0,1-3.73-.91Zm3.76-4.86c1.64,0,2.3-1.59,2.3-4.91,0-3.07-.87-4.72-2.11-4.69s-1.89,1.73-1.89,4.72C472.39,191.86,473.21,193.31,474.09,193.31Z"/><path class="cls-1" d="M438.8,192.63l-1.85,7h-2.34l1.27-7Z"/><path class="cls-1" d="M484.55,192.63l-1.85,7h-2.34l1.27-7Z"/><path class="cls-1" d="M489.05,193.21l1.12-1.66c2.2-3.24,4.5-6.58,4.5-9.52,0-1.84-.86-2.91-2-2.91a3.92,3.92,0,0,0-3,1.49l-.24-3.22a5.8,5.8,0,0,1,3.73-1.12c3.19,0,4.33,2.35,4.33,5.2,0,3.53-2.26,7.45-4.78,11l-.54.75h5.47v2.86h-8.53Z"/><path class="cls-1" d="M500.65,183.8c0-1.05,0-1.85-.09-2.39h2.61c0,.77.08,1.54.08,2.3h.05c.4-1.13,1.24-2.52,2.73-2.52a3,3,0,0,1,2.73,2.33c.53-1,1.31-2.33,2.9-2.33,2.36,0,3.11,2.27,3.11,5.82v9h-2.6v-9.23c0-1.82-.42-2.73-1.39-2.73-1.16,0-1.77,1.48-1.77,3.1V196h-2.6v-9.23c0-1.82-.42-2.73-1.39-2.73-1.16,0-1.77,1.48-1.77,3.1V196h-2.6Z"/><path class="cls-1" d="M516.75,198.31a5.63,5.63,0,0,0,3.19,1.25c2.46,0,2.86-2.3,2.86-4.6v-1.39h0c-.42,1.14-1.16,2.47-2.86,2.47-1.51,0-3.78-1.36-3.78-7.27,0-4,1.07-7.58,3.91-7.58,1.57,0,2.31,1.22,2.86,2.5H523c0-.77.06-1.51.08-2.28h2.36c0,.77-.09,1.54-.09,2.3v10.8c0,4.57-1,7.84-5,7.84a8.52,8.52,0,0,1-3.72-.91Zm3.76-4.85c1.64,0,2.29-1.59,2.29-4.92,0-3.06-.86-4.71-2.1-4.68s-1.89,1.73-1.89,4.71C518.81,192,519.63,193.46,520.51,193.46Z"/><path class="cls-2" d="M246.24,109.27h-.15L239,79.33h-31V134h17.87L226,91.09h.32L236.76,134h17.48L265,91.09h.15l.31,42.95h18.81V79.33H253.3Zm-71.91,4.15H200V100.26h-25.7V92.5h26.88V79.33H153.79V134h48V120.87H174.33ZM145.21,95.88V79.24H96.39V93.37H122.3l-26.85,24V134h50.63v-14.6H119.23Zm255.54,10.33c0-8.93,6.74-13.71,15.68-13.71a35.09,35.09,0,0,1,10.5,2V80.12c-5.64-1-9.09-1.73-14.89-1.73-17.56,0-32.76,9.17-32.76,27.51,0,19.52,14.58,29.07,32.76,29.07a59.63,59.63,0,0,0,15-2.19v-14.5a34,34,0,0,1-11.36,2.12C407,120.4,400.75,115.62,400.75,106.21ZM328.53,79.33H292.4V134h21V118.28h15.05c11,0,20.14-5.87,20.14-20.14C348.59,83.41,337.07,79.33,328.53,79.33Zm-11,26.26h-4.62V92h4.54c5.09,0,10.19.7,10.19,6.5C327.59,104.65,322.49,105.59,317.48,105.59Zm46.61-50.26c-6.24,0-11.3,4-11.3,9s5.06,9,11.3,9,11.3-4,11.3-9S370.33,55.33,364.09,55.33Zm-2.57,78.93a10.81,10.81,0,0,1,5.14,0l7.44-54.69h-20Z"/><path class="cls-3" d="M52.24,65.11c-24.44,0-38.76,12.72-38.76,36.15,0,23.84,14.32,36.16,38.76,36.16s39.05-12.32,39.05-36.16C91.29,77.83,76.67,65.11,52.24,65.11Zm0,55.48c-9.62,0-10.72-11.82-10.72-19.33,0-6.51.8-19.33,10.72-19.33,10.21,0,10.91,12.82,11,19.33C63.15,108.77,62.85,120.59,52.24,120.59Z"/><path class="cls-4" d="M438.78,85.75a2.24,2.24,0,0,0,2-1.94c0-1.57-1.23-2.19-2.7-2.19h-2.46v8.14h1V86.13h.76a1.61,1.61,0,0,1,1.76,1l1.12,2.63h1.08l-1.26-3A1.62,1.62,0,0,0,438.78,85.75Zm-2.17-.57V82.57h.9c1.08,0,2.18.15,2.18,1.24s-1.14,1.37-2.18,1.37Z"/><path class="cls-5" d="M438.18,78.93a6.93,6.93,0,1,0,6.95,6.91A6.92,6.92,0,0,0,438.18,78.93Zm0,12.87a5.92,5.92,0,0,1-5.83-6,5.84,5.84,0,0,1,5.83-5.92,5.94,5.94,0,0,1,0,11.88Z"/></svg>