<?xml version="1.0" standalone="no"?>
<!DOCTYPE svg PUBLIC "-//W3C//DTD SVG 20010904//EN"
 "http://www.w3.org/TR/2001/REC-SVG-20010904/DTD/svg10.dtd">
<svg version="1.0" xmlns="http://www.w3.org/2000/svg"
 width="1024.000000pt" height="1024.000000pt" viewBox="0 0 1024.000000 1024.000000"
 preserveAspectRatio="xMidYMid meet">
<metadata>
Created by potrace 1.16, written by Peter Selinger 2001-2019
</metadata>
<g transform="translate(0.000000,1024.000000) scale(0.100000,-0.100000)"
fill="#000000" stroke="none">
<path d="M0 5120 l0 -5120 5120 0 5120 0 0 5120 0 5120 -5120 0 -5120 0 0
-5120z m2964 3950 c65 -10 222 -83 391 -180 155 -89 214 -130 345 -239 63 -52
140 -115 170 -140 30 -25 123 -109 206 -186 83 -77 209 -192 280 -255 71 -63
236 -221 366 -351 130 -131 272 -264 315 -298 43 -33 146 -115 228 -181 83
-66 168 -130 191 -142 l41 -21 34 24 c56 39 277 217 390 314 203 174 402 339
443 368 22 16 84 71 136 121 53 50 134 127 180 171 47 44 182 173 300 286 204
196 443 404 492 430 13 6 32 19 44 28 11 9 5 3 -14 -14 -94 -82 -107 -95 -87
-89 16 4 14 0 -9 -21 -16 -14 -34 -24 -40 -22 -7 3 -13 -4 -13 -14 -2 -23 4
-24 23 -4 9 8 21 15 27 15 7 0 4 -7 -5 -14 -10 -7 -18 -18 -18 -25 0 -6 -9
-11 -19 -11 -16 0 -18 -6 -15 -37 5 -36 4 -37 -11 -18 -8 11 -13 25 -11 32 3
7 1 13 -4 13 -6 0 -10 -15 -10 -32 1 -61 -1 -65 -34 -61 -45 5 -58 11 -50 25
6 10 4 11 -7 1 -7 -7 -17 -13 -22 -13 -4 0 -5 6 0 13 4 6 -18 -10 -49 -36 -53
-45 -56 -50 -51 -86 4 -29 1 -39 -11 -44 -11 -4 -16 -1 -16 10 0 12 -3 13 -14
4 -8 -7 -16 -8 -18 -3 -1 6 -86 -70 -187 -168 -158 -153 -184 -183 -185 -209
-1 -31 17 -43 27 -18 4 9 8 8 16 -3 7 -10 11 -11 11 -2 0 6 7 12 16 12 14 0
14 -3 4 -15 -7 -8 -20 -15 -29 -15 -10 0 -39 -14 -65 -30 -40 -26 -46 -33 -35
-46 7 -8 18 -13 26 -10 7 3 13 -1 13 -9 0 -8 -5 -15 -12 -15 -9 0 -9 -3 0 -12
10 -10 15 -10 22 2 9 13 11 13 20 0 7 -12 12 -12 22 -2 9 9 9 12 0 12 -7 0
-12 4 -12 8 0 12 35 9 47 -4 7 -7 8 -17 2 -25 -7 -11 -9 -10 -9 5 0 29 -18 7
-24 -29 -2 -16 -5 -32 -5 -34 -1 -3 -6 0 -12 6 -6 6 -18 9 -25 6 -8 -3 -14 0
-14 6 0 6 5 11 10 11 20 0 9 16 -12 17 -34 3 -69 25 -64 40 3 7 -1 13 -9 13
-14 0 -32 -57 -20 -68 3 -3 16 -7 28 -7 18 0 22 -5 20 -27 -1 -16 2 -28 8 -28
5 0 9 5 9 10 0 6 5 10 10 10 6 0 10 -7 10 -15 0 -9 6 -12 16 -8 12 4 13 7 3
14 -10 6 -9 10 4 15 10 4 24 1 30 -5 16 -17 -20 -44 -48 -37 -14 4 -25 -2 -33
-14 -7 -11 -8 -20 -3 -20 5 0 11 6 14 13 3 8 10 6 21 -8 9 -12 15 -15 16 -7 0
7 5 10 10 7 6 -4 8 -11 5 -16 -14 -22 31 -7 52 18 13 14 26 23 31 19 4 -4 -1
-13 -11 -20 -23 -17 -22 -29 2 -17 24 13 34 50 15 58 -8 3 -14 11 -14 19 0 8
6 11 17 7 12 -5 15 -2 10 10 -7 18 8 24 18 7 4 -7 13 -6 26 1 11 5 29 7 39 4
12 -4 20 -2 20 4 0 6 -4 11 -10 11 -5 0 -19 9 -30 20 -22 22 -19 25 11 10 11
-7 19 -7 19 -1 0 5 -6 11 -12 13 -8 3 -4 9 10 17 19 10 22 9 22 -5 0 -13 3
-14 14 -5 11 9 15 9 18 -1 3 -7 -7 -19 -21 -26 l-26 -12 28 5 c32 6 38 -14 6
-22 -11 -3 -18 -11 -15 -19 3 -7 0 -15 -7 -18 -7 -2 -4 -5 6 -5 12 -1 15 -5
10 -13 -13 -21 -9 -63 7 -69 10 -5 6 -9 -15 -14 -53 -12 -57 -15 -51 -31 5
-12 2 -15 -10 -10 -10 4 -14 2 -11 -6 2 -7 10 -12 16 -11 6 2 11 -4 11 -12 0
-8 -6 -15 -12 -16 -10 0 -10 -2 0 -6 6 -2 12 -13 12 -24 0 -22 18 -26 26 -5 6
15 44 10 44 -6 0 -5 -5 -6 -11 -3 -16 10 -40 -27 -27 -42 6 -7 17 -13 24 -13
8 0 14 -4 14 -9 0 -5 3 -16 6 -25 4 -12 0 -16 -15 -16 -17 0 -21 -6 -20 -32 1
-22 3 -26 6 -13 8 31 21 41 36 26 10 -11 9 -12 -3 -6 -13 8 -13 7 -1 -9 8 -9
20 -15 28 -12 8 3 11 1 8 -4 -3 -6 -16 -10 -28 -11 -12 0 -17 -3 -12 -5 6 -2
9 -19 7 -37 -3 -25 0 -34 11 -34 8 0 13 5 11 11 -6 16 13 42 23 32 4 -5 2 -11
-5 -13 -10 -4 -10 -8 -1 -19 9 -11 9 -17 0 -28 -7 -8 -8 -17 -3 -20 10 -6 9
-36 -1 -53 -11 -17 27 -12 44 6 8 9 13 17 12 18 -9 10 0 33 12 33 8 0 15 5 15
11 0 5 -4 7 -10 4 -14 -9 -13 -1 7 41 17 35 17 36 -2 51 -14 11 -16 17 -8 20
9 3 11 14 6 31 -6 24 -5 26 10 13 14 -11 18 -11 24 5 4 11 13 24 21 30 12 9 9
12 -17 17 -17 4 -31 11 -31 17 0 7 6 8 18 1 14 -7 20 -4 29 15 11 24 1 35 -13
13 -12 -19 -27 7 -16 27 7 14 6 23 -4 31 -7 7 -15 9 -19 4 -3 -5 1 -11 7 -14
9 -3 7 -10 -7 -21 -25 -20 -36 -20 -29 -1 4 9 0 15 -7 15 -11 1 -11 3 1 13 8
7 16 22 18 35 2 22 1 23 -15 6 -17 -16 -18 -16 -21 -1 -4 18 -14 22 -25 10 -4
-3 0 -15 10 -25 15 -17 15 -18 0 -18 -10 0 -17 5 -17 11 0 5 -4 7 -10 4 -5 -3
-10 -2 -10 4 0 5 5 13 10 16 6 4 7 11 4 17 -4 6 -2 8 3 5 6 -4 13 0 16 7 3 8
1 16 -4 18 -19 6 1 54 22 54 24 0 24 -10 -1 -27 -18 -13 -18 -15 16 -31 31
-14 35 -14 30 -1 -4 11 -2 13 9 9 8 -3 21 -8 29 -12 9 -3 13 3 14 23 0 15 2
35 3 43 1 8 -2 24 -7 34 -6 16 -4 18 10 13 10 -4 25 -3 34 2 21 11 143 -11
125 -22 -7 -4 -23 -5 -36 -2 -18 5 -26 1 -34 -18 -12 -25 -4 -31 22 -16 22 13
65 19 65 9 0 -5 -11 -10 -24 -10 -14 0 -28 -4 -31 -10 -3 -6 1 -7 9 -4 9 4 16
1 16 -6 0 -8 -9 -11 -25 -8 -14 3 -33 -1 -42 -8 -17 -13 -17 -13 1 -14 19 0
19 -1 1 -20 -12 -13 -25 -18 -38 -14 -16 5 -17 3 -8 -15 10 -18 9 -20 -6 -14
-12 5 -15 2 -10 -9 3 -10 -1 -19 -11 -23 -13 -5 -10 -9 12 -20 35 -18 39 -19
33 -2 -3 7 4 12 19 12 28 0 31 -10 7 -19 -15 -6 -15 -8 -3 -16 8 -5 14 -11 12
-12 -2 -2 0 -11 4 -21 5 -13 10 -15 19 -7 9 7 15 8 19 1 4 -6 20 -8 36 -4 20
3 30 1 30 -6 0 -7 -4 -9 -10 -6 -5 3 -10 2 -10 -4 0 -9 31 -31 44 -31 3 0 4
14 2 30 -3 27 -1 30 17 24 17 -5 19 -3 12 12 -4 11 -7 27 -7 37 0 9 -3 17 -9
17 -5 0 -9 5 -9 11 0 6 7 9 15 6 8 -4 17 -2 20 4 4 5 1 8 -6 7 -6 -2 -13 2
-16 9 -3 7 4 9 19 6 23 -6 23 -6 4 15 -11 13 -16 28 -12 39 6 13 9 14 15 4 5
-7 17 -12 27 -11 34 4 44 0 44 -16 0 -13 3 -14 14 -5 9 8 21 8 39 2 18 -7 28
-7 33 1 4 6 3 8 -4 4 -6 -3 -14 -1 -17 5 -5 7 0 9 13 7 14 -2 44 19 95 67 65
62 73 73 66 94 -7 16 -6 21 4 18 6 -2 11 -12 11 -21 -1 -12 9 -8 40 16 94 74
136 112 136 125 0 8 4 12 10 8 5 -3 18 3 30 15 11 11 20 17 20 13 0 -4 13 6
29 21 18 17 27 35 24 45 -3 10 -2 12 4 4 6 -8 13 -8 26 2 12 8 14 15 8 20 -6
3 -11 12 -11 18 0 7 5 4 11 -6 10 -18 12 -18 30 -1 11 9 22 15 24 12 6 -6 -96
-98 -179 -162 -133 -102 -212 -171 -355 -309 -236 -228 -453 -403 -484 -391
-8 3 -18 1 -22 -5 -3 -7 0 -8 9 -5 9 3 16 4 16 2 0 -4 -133 -118 -175 -150 -5
-4 -75 -60 -155 -124 -188 -151 -226 -179 -336 -246 -51 -31 -122 -80 -160
-110 -37 -29 -123 -91 -190 -138 -68 -47 -176 -126 -241 -176 -65 -50 -162
-121 -216 -157 -109 -75 -115 -76 -197 -29 -76 42 -350 238 -405 289 -58 53
-219 176 -280 213 -105 64 -221 148 -300 215 -115 99 -213 176 -340 265 -66
47 -190 139 -275 206 -85 66 -218 166 -295 222 -77 56 -182 135 -232 175 -198
154 -320 245 -368 272 -27 15 -140 87 -250 160 -110 72 -277 171 -370 219 -93
48 -185 99 -204 113 l-34 27 44 39 c134 118 254 214 329 265 47 31 132 93 190
137 230 177 233 178 374 155z m4841 -241 c44 -21 22 -19 -40 5 -22 8 -31 15
-20 15 11 0 38 -9 60 -20z m200 -70 c191 -66 555 -249 555 -279 0 -7 -287
-227 -320 -245 -24 -13 -3 6 98 85 67 54 89 76 80 83 -9 6 -8 7 5 3 25 -8 67
21 60 41 -5 13 -2 15 12 9 11 -4 25 0 36 10 18 16 17 18 -28 46 -67 42 -223
123 -327 169 -90 39 -105 39 -106 2 0 -15 -19 -17 -39 -4 -12 8 -12 12 -2 25
8 9 21 16 30 17 9 0 -26 16 -78 35 -85 31 -114 44 -99 44 3 0 58 -18 123 -41z
m15 -49 c0 -5 -10 -10 -22 -10 -19 0 -20 2 -8 10 19 13 30 13 30 0z m-60 -66
c0 -7 -12 -22 -27 -35 -17 -13 -23 -23 -16 -26 16 -6 -6 -43 -24 -43 -18 0
-16 10 5 27 15 13 15 14 -10 8 -16 -3 -28 -1 -28 5 0 5 5 10 10 10 6 0 10 6
10 13 0 7 10 13 21 14 24 2 52 23 30 23 -7 0 -10 4 -7 8 8 13 36 10 36 -4z
m90 -4 c0 -19 -36 -47 -47 -36 -8 8 7 26 22 26 9 0 12 6 9 15 -4 8 -1 15 5 15
6 0 11 -9 11 -20z m-610 -80 c0 -11 -4 -20 -8 -20 -4 0 -8 9 -9 20 -1 11 2 20
8 20 5 0 9 -9 9 -20z m177 -11 c2 -16 -1 -19 -9 -11 -5 5 -7 15 -4 21 10 15
12 14 13 -10z m-29 -31 c7 -7 12 -8 12 -3 0 4 9 -2 20 -15 15 -17 20 -19 20
-8 0 9 6 18 13 21 7 3 12 -4 12 -19 0 -13 -3 -24 -7 -24 -17 0 -7 -20 10 -21
14 0 14 -2 -3 -9 -11 -5 -16 -9 -12 -9 5 -1 5 -7 1 -13 -6 -9 -10 -5 -14 12
-4 19 -13 26 -39 28 -29 3 -32 6 -28 28 3 16 0 24 -10 24 -8 0 -11 5 -8 10 8
13 18 13 33 -2z m247 -28 c3 -5 1 -10 -4 -10 -6 0 -11 5 -11 10 0 6 2 10 4 10
3 0 8 -4 11 -10z m198 -5 c-3 -9 -8 -14 -10 -11 -3 3 -2 9 2 15 9 16 15 13 8
-4z m-736 -1 c-3 -3 -12 -4 -19 -1 -8 3 -5 6 6 6 11 1 17 -2 13 -5z m-29 -36
c-2 -6 -10 -14 -16 -16 -7 -2 -10 2 -6 12 7 18 28 22 22 4z m42 -8 c0 -5 -5
-10 -11 -10 -6 0 -9 -7 -6 -14 4 -10 1 -13 -9 -9 -17 6 -17 10 -1 28 14 17 27
19 27 5z m460 0 c-19 -13 -30 -13 -30 0 0 6 10 10 23 10 18 0 19 -2 7 -10z
m630 -20 c0 -5 -8 -10 -17 -10 -15 0 -16 2 -3 10 19 12 20 12 20 0z m-453 -16
c-3 -3 -12 -4 -19 -1 -8 3 -5 6 6 6 11 1 17 -2 13 -5z m-816 -47 c-8 -8 -11
-3 -11 19 1 25 2 27 11 11 8 -14 8 -22 0 -30z m-5227 -9 c-22 -24 -88 -88
-149 -142 -107 -97 -104 -84 5 18 30 28 81 77 115 108 33 32 62 58 64 58 2 0
-14 -19 -35 -42z m106 17 c17 -9 30 -17 30 -20 0 -4 -71 24 -79 31 -11 10 23
2 49 -11z m5752 1 c10 6 11 4 0 -7 -10 -11 -15 -10 -30 6 -15 17 -15 18 0 6 9
-7 23 -9 30 -5z m958 -78 c21 -118 41 -345 47 -540 8 -255 -19 -885 -43 -1041
-4 -24 0 -59 11 -95 17 -53 17 -77 6 -352 -6 -162 -17 -344 -22 -405 -6 -60
-8 -139 -5 -175 7 -85 21 -324 20 -375 0 -208 -5 -305 -16 -315 -35 -29 -233
-173 -303 -220 -94 -63 -297 -222 -375 -295 -30 -28 -98 -86 -150 -130 -52
-43 -116 -97 -141 -119 -25 -23 -97 -84 -160 -136 -62 -52 -150 -128 -194
-169 -44 -40 -111 -98 -150 -129 -38 -30 -115 -98 -170 -152 -55 -53 -141
-132 -191 -176 -149 -130 -267 -231 -299 -256 -16 -12 -92 -77 -168 -143 -76
-66 -155 -134 -176 -150 -21 -17 -98 -82 -172 -146 -152 -132 -354 -292 -573
-454 -73 -54 -93 -64 -112 -58 -40 14 -270 210 -449 383 -94 91 -218 206 -275
256 -58 50 -141 130 -185 178 -44 48 -136 144 -205 215 -187 191 -403 423
-510 546 -144 167 -369 393 -525 529 -77 66 -158 139 -180 161 -22 22 -62 58
-90 80 -91 72 -189 158 -305 270 -63 61 -164 145 -225 187 -100 69 -166 132
-207 198 -33 54 -48 464 -51 1405 -1 386 0 413 19 470 19 54 20 82 18 295 -1
129 4 305 11 390 7 85 10 160 8 167 -4 9 35 190 43 201 6 8 185 -76 234 -110
126 -86 343 -247 411 -305 41 -33 160 -125 266 -202 106 -78 217 -164 248
-193 30 -28 144 -110 253 -182 379 -253 384 -257 492 -369 145 -150 279 -257
403 -318 109 -55 148 -82 242 -168 74 -68 334 -262 488 -364 87 -58 123 -77
149 -77 37 0 168 80 288 175 36 28 106 82 155 120 50 37 126 98 170 135 99 84
213 162 225 155 4 -3 26 11 47 31 63 60 145 120 208 152 79 39 492 363 544
426 7 9 20 16 27 16 8 0 33 17 57 39 23 21 67 58 98 82 142 110 215 173 369
318 248 235 341 316 385 339 22 11 72 48 110 81 251 218 333 282 467 366 69
43 72 44 85 25 7 -10 18 -43 23 -72z m-1605 22 c-3 -5 1 -7 9 -4 8 3 17 17 21
32 l7 27 23 -29 24 -30 -22 -12 c-45 -27 -49 -27 -61 -8 -6 10 -12 24 -12 29
-4 27 -6 28 -14 10 -7 -18 -8 -19 -15 -2 -4 10 -2 24 6 33 11 14 14 12 26 -11
8 -14 11 -30 8 -35z m350 1 c-3 -5 -1 -13 5 -16 6 -4 1 -14 -12 -25 -13 -11
-17 -19 -10 -20 6 0 12 5 12 10 0 6 7 10 15 10 12 0 10 -5 -5 -20 -20 -20 -19
-47 1 -35 5 4 9 1 9 -5 0 -7 -6 -10 -14 -7 -7 3 -19 0 -26 -6 -9 -9 -11 -8 -8
3 1 9 -1 15 -5 15 -21 -1 -24 29 -4 46 12 10 18 18 13 19 -5 0 -18 -7 -28 -17
-10 -9 -21 -14 -24 -10 -6 6 55 66 68 67 4 0 5 8 2 18 -5 16 -5 16 6 -1 6 -9
9 -21 5 -26z m-5359 -1 c24 -17 44 -33 44 -36 0 -6 -14 2 -64 38 -53 38 -36
36 20 -2z m5634 20 c0 -5 -4 -10 -10 -10 -5 0 -10 5 -10 10 0 6 5 10 10 10 6
0 10 -4 10 -10z m-335 -21 c10 -16 0 -21 -29 -13 -14 3 -23 10 -20 15 7 12 41
11 49 -2z m362 -16 c-7 -7 -22 -10 -34 -7 -31 8 -20 21 16 20 24 -1 28 -4 18
-13z m70 1 c-3 -3 -12 -4 -19 -1 -8 3 -5 6 6 6 11 1 17 -2 13 -5z m-467 -19
c0 -8 -2 -15 -4 -15 -2 0 -6 7 -10 15 -3 8 -1 15 4 15 6 0 10 -7 10 -15z
m-260 -5 c0 -5 -2 -10 -4 -10 -3 0 -8 5 -11 10 -3 6 -1 10 4 10 6 0 11 -4 11
-10z m67 -20 c1 -18 -2 -28 -7 -25 -15 9 -11 55 4 55 1 0 2 -14 3 -30z m657 9
c9 8 18 6 32 -4 10 -8 14 -15 7 -15 -6 0 -14 4 -17 9 -4 5 -17 4 -31 -2 -26
-13 -35 -30 -10 -21 8 4 15 1 15 -5 0 -6 -4 -11 -10 -11 -5 0 -10 -7 -10 -15
0 -8 -5 -15 -11 -15 -5 0 -7 5 -4 10 3 6 1 10 -5 10 -7 0 -23 9 -37 20 -14 11
-21 20 -14 20 6 0 11 7 11 16 0 14 3 14 15 4 13 -10 13 -15 3 -21 -7 -4 -10
-11 -6 -14 3 -3 16 7 29 23 16 19 25 24 27 15 3 -10 7 -11 16 -4z m-314 3 c0
-4 -9 -13 -20 -20 -19 -12 -20 -11 -8 8 13 20 28 27 28 12z m210 -2 c0 -5 -2
-10 -4 -10 -3 0 -8 5 -11 10 -3 6 -1 10 4 10 6 0 11 -4 11 -10z m196 -2 c4 -6
3 -8 -4 -4 -15 9 -23 -7 -12 -24 7 -11 11 -11 23 -1 10 8 17 9 22 1 3 -5 1
-10 -5 -10 -7 0 -10 -7 -7 -15 4 -8 2 -17 -2 -20 -5 -3 -7 -14 -4 -25 3 -11 0
-20 -6 -20 -5 0 -8 -6 -5 -14 6 -16 -18 -24 -54 -18 -14 3 -21 10 -18 18 3 7
0 15 -7 18 -8 3 -9 7 -2 13 6 4 10 21 10 36 -1 22 3 27 20 25 12 -2 19 2 17
11 -1 7 3 19 9 27 14 17 16 17 25 2z m-926 -35 c0 -19 -13 -9 -16 12 -1 8 2
13 7 9 5 -3 9 -12 9 -21z m144 11 c3 -8 1 -24 -4 -34 -9 -17 -6 -21 16 -26 21
-6 24 -8 11 -16 -9 -4 -30 -10 -48 -12 -18 -2 -39 -12 -46 -22 -7 -9 -15 -15
-18 -12 -3 3 6 16 19 29 l25 25 -47 14 c-30 9 -40 16 -28 18 10 2 23 -1 29 -7
6 -6 20 -11 31 -11 18 0 18 1 -3 19 -16 14 -18 20 -7 24 7 3 20 0 27 -6 8 -7
10 -8 6 -3 -7 10 10 36 23 36 4 0 11 -7 14 -16z m106 0 c0 -2 -9 -4 -21 -4
-11 0 -18 4 -14 10 5 8 35 3 35 -6z m120 4 c0 -4 -8 -12 -17 -17 -16 -9 -16
-12 -3 -20 8 -6 26 -8 40 -4 24 5 25 5 5 -10 l-20 -16 20 -1 c16 0 17 -2 5
-10 -8 -5 -11 -13 -6 -17 4 -4 15 2 25 13 30 37 91 42 91 8 0 -17 -22 -18 -39
-1 -11 10 -14 9 -18 -1 -3 -6 -8 -10 -12 -8 -12 8 -30 -30 -21 -45 5 -7 12
-10 17 -6 4 5 1 12 -6 16 -9 6 -10 11 -2 15 6 4 14 1 17 -7 7 -18 -30 -83 -46
-79 -6 1 -8 -2 -5 -9 9 -14 -31 -51 -52 -47 -9 2 -18 9 -21 17 -3 10 0 12 12
8 10 -4 15 -3 11 3 -3 6 -14 10 -23 10 -14 0 -14 2 -3 9 8 5 12 18 8 30 -4 18
-2 21 13 16 10 -3 21 -1 25 4 3 7 0 8 -9 5 -9 -3 -16 -2 -16 4 0 5 7 12 15 16
8 3 15 10 15 16 0 5 -7 10 -15 10 -8 0 -15 -4 -15 -10 0 -5 -7 -7 -16 -3 -13
5 -13 7 -2 14 7 5 9 9 3 9 -5 0 1 10 15 21 l25 21 -23 -5 c-20 -5 -23 -2 -19
13 3 13 1 17 -10 13 -13 -5 -13 -3 -2 14 11 19 59 28 59 11z m850 -11 c0 -2
-26 -25 -57 -51 l-58 -48 54 51 c52 48 61 55 61 48z m-6084 -33 c-4 -9 -9 -15
-11 -12 -3 3 -3 13 1 22 4 9 9 15 11 12 3 -3 3 -13 -1 -22z m4769 -13 c6 -20
5 -23 -10 -17 -16 6 -16 4 -4 -10 11 -14 11 -18 1 -21 -6 -3 -10 -9 -7 -13 3
-5 13 -6 22 -3 12 5 11 1 -4 -14 -25 -25 -63 -39 -63 -24 0 6 5 11 10 11 6 0
10 6 10 14 0 9 -7 12 -22 9 -14 -3 -19 -1 -12 4 14 11 28 45 25 61 -2 10 4 12
19 7 19 -6 21 -4 15 17 -5 15 -4 20 3 13 5 -5 13 -21 17 -34z m861 2 c-7 -7
-26 7 -26 19 0 6 6 6 15 -2 9 -7 13 -15 11 -17z m-586 13 c0 -2 -7 -6 -15 -10
-8 -3 -15 -1 -15 4 0 6 7 10 15 10 8 0 15 -2 15 -4z m85 -16 c-3 -5 -13 -10
-21 -10 -8 0 -12 -4 -9 -10 4 -6 -5 -10 -19 -10 -14 0 -26 5 -26 11 0 6 7 8
16 5 12 -4 15 -2 10 9 -4 11 2 15 25 15 18 0 28 -4 24 -10z m567 -12 c-7 -7
-12 -8 -12 -2 0 14 12 26 19 19 2 -3 -1 -11 -7 -17z m-52 -14 c0 -8 -5 -12
-10 -9 -6 4 -8 11 -5 16 9 14 15 11 15 -7z m-794 -38 c13 5 10 -2 -11 -22 -17
-17 -38 -28 -48 -25 -20 4 -18 25 4 27 30 2 31 5 8 25 l-24 20 26 -16 c15 -9
34 -13 45 -9z m182 17 c-10 -3 -18 -8 -18 -13 0 -4 -9 -10 -20 -13 -11 -3 -20
-4 -20 -2 0 2 -2 9 -5 17 -4 9 6 13 37 14 24 0 35 -1 26 -3z m332 -3 c13 -8
13 -10 -2 -10 -9 0 -20 5 -23 10 -8 13 5 13 25 0z m330 0 c0 -5 -5 -10 -11
-10 -5 0 -7 5 -4 10 3 6 8 10 11 10 2 0 4 -4 4 -10z m-106 -40 c-4 -19 0 -32
8 -35 11 -5 23 -75 13 -75 -16 0 -33 14 -29 24 3 7 -1 13 -9 13 -7 0 -14 -9
-14 -20 -2 -20 -19 -37 -38 -37 -5 0 -3 5 5 10 12 7 10 11 -10 19 -14 5 -19
10 -13 10 10 1 10 7 2 25 -9 19 -8 29 5 47 9 13 16 18 16 12 0 -7 -4 -15 -10
-18 -19 -12 -11 -26 9 -15 11 5 27 7 37 3 14 -5 15 -3 7 12 -7 11 -7 25 1 40
14 31 25 22 20 -15z m50 14 c7 -18 -1 -18 -20 0 -8 8 -14 17 -14 20 0 11 29
-6 34 -20z m-239 -4 c3 -5 1 -10 -4 -10 -6 0 -11 5 -11 10 0 6 2 10 4 10 3 0
8 -4 11 -10z m148 3 c-7 -2 -19 -2 -25 0 -7 3 -2 5 12 5 14 0 19 -2 13 -5z
m167 -11 c0 -4 -12 -8 -27 -9 -26 -1 -26 0 -9 13 18 13 36 11 36 -4z m138 6
c-3 -7 -13 -15 -24 -17 -16 -3 -17 -1 -5 13 16 19 34 21 29 4z m-5871 -30 c-3
-7 -5 -2 -5 12 0 14 2 19 5 13 2 -7 2 -19 0 -25z m5364 -1 c-8 -8 -11 -7 -11
4 0 9 3 19 7 23 4 4 9 2 11 -4 3 -7 -1 -17 -7 -23z m407 13 c14 -23 37 -17 27
7 -4 13 -3 13 9 4 16 -14 11 -45 -12 -63 -9 -7 -13 -8 -9 -2 3 6 -5 22 -19 37
-25 27 -29 37 -16 37 4 0 13 -9 20 -20z m-6286 -28 c-48 -42 -55 -65 -93 -310
-17 -112 -20 -162 -15 -230 12 -143 13 -204 6 -257 -6 -44 -7 -40 -8 36 0 48
-4 138 -7 201 -8 120 0 210 35 388 24 125 31 142 77 179 53 43 57 38 5 -7z
m5266 9 c38 -1 40 -14 10 -47 -28 -29 -43 -31 -28 -5 7 14 7 22 -2 27 -6 4 -8
3 -5 -3 4 -6 0 -13 -8 -17 -10 -4 -15 1 -15 14 0 11 -6 20 -14 20 -8 0 -17 4
-20 8 -2 4 7 7 22 6 15 -1 42 -2 60 -3z m590 -36 c-2 -1 -14 -6 -27 -10 -17
-5 -22 -4 -19 6 3 8 13 13 22 12 11 0 15 4 12 12 -2 7 -2 16 2 20 4 4 8 -3 10
-15 2 -12 2 -23 0 -25z m-738 -8 c0 -10 -4 -15 -10 -12 -5 3 -10 18 -10 33 0
21 2 24 10 12 5 -8 10 -23 10 -33z m-4845 23 c3 -6 -1 -7 -9 -4 -18 7 -21 14
-7 14 6 0 13 -4 16 -10z m5090 -10 c3 -5 1 -10 -4 -10 -6 0 -11 5 -11 10 0 6
2 10 4 10 3 0 8 -4 11 -10z m-4999 -17 c15 -21 18 -33 6 -33 -5 0 -14 11 -20
25 -13 29 -5 33 14 8z m141 -15 c-3 -8 -6 -5 -6 6 -1 11 2 17 5 13 3 -3 4 -12
1 -19z m4683 12 c13 -8 13 -10 -2 -10 -9 0 -20 5 -23 10 -8 13 5 13 25 0z
m345 -30 c-3 -5 -12 -10 -18 -10 -7 0 -6 4 3 10 19 12 23 12 15 0z m405 0 c8
-5 11 -12 8 -16 -4 -3 -14 1 -23 10 -18 17 -9 21 15 6z m-5630 -10 c0 -5 -4
-10 -10 -10 -5 0 -10 5 -10 10 0 6 5 10 10 10 6 0 10 -4 10 -10z m5170 6 c0
-3 -4 -8 -10 -11 -5 -3 -10 -1 -10 4 0 6 5 11 10 11 6 0 10 -2 10 -4z m290 0
c0 -2 -7 -7 -16 -10 -8 -3 -12 -2 -9 4 6 10 25 14 25 6z m350 -5 c0 -6 -4 -13
-10 -16 -5 -3 -10 1 -10 9 0 9 5 16 10 16 6 0 10 -4 10 -9z m-166 -20 l29 -6
-28 -13 c-21 -10 -25 -15 -16 -26 7 -8 22 -12 34 -9 16 3 18 2 8 -5 -7 -5 -10
-15 -6 -22 5 -9 2 -10 -14 -5 -25 8 -28 -3 -5 -20 15 -10 13 -12 -14 -13 -18
0 -34 4 -37 9 -4 5 -12 9 -18 9 -8 0 -8 -3 1 -9 10 -6 -45 -8 -67 -2 -2 1 3 9
10 19 13 15 12 16 -3 4 -19 -15 -42 -7 -31 11 14 23 10 45 -6 39 -14 -5 -14
-4 -2 12 8 9 21 14 28 11 8 -2 24 1 36 7 12 7 25 11 30 10 4 -1 7 3 7 9 0 7 7
8 18 4 9 -4 30 -10 46 -14z m-229 -11 c3 -6 -4 -10 -17 -10 -18 0 -20 2 -8 10
19 12 18 12 25 0z m45 -20 c0 -5 -4 -10 -10 -10 -5 0 -10 5 -10 10 0 6 5 10
10 10 6 0 10 -4 10 -10z m-698 -42 c-6 -6 -9 0 -9 18 0 23 1 24 9 10 7 -12 7
-21 0 -28z m1028 22 c0 -5 -2 -10 -4 -10 -3 0 -8 5 -11 10 -3 6 -1 10 4 10 6
0 11 -4 11 -10z m-581 -9 c9 -6 10 -11 2 -15 -6 -4 -18 0 -27 8 -12 12 -12 16
-2 16 7 0 19 -4 27 -9z m116 -1 c3 -5 1 -10 -4 -10 -6 0 -11 5 -11 10 0 6 2
10 4 10 3 0 8 -4 11 -10z m109 -23 c-6 -21 -6 -21 13 -4 18 15 21 16 26 3 3
-8 1 -17 -6 -19 -7 -2 3 -7 21 -11 17 -4 32 -12 32 -17 0 -12 -5 -12 -47 6
-41 17 -43 18 -43 7 0 -5 18 -17 40 -28 22 -10 40 -23 40 -27 0 -5 10 -5 21
-2 15 5 20 3 17 -6 -6 -18 -48 -22 -48 -5 0 10 -7 12 -22 8 -19 -5 -20 -7 -5
-10 33 -7 17 -21 -20 -17 -21 2 -33 1 -26 -1 7 -3 9 -12 6 -20 -3 -8 0 -14 6
-14 6 0 11 -4 11 -10 0 -15 -19 -12 -36 5 -18 17 -34 20 -34 4 0 -5 4 -8 9 -5
5 3 11 -1 15 -9 6 -17 -9 -21 -19 -5 -4 6 -16 8 -28 5 -22 -6 -22 -5 1 11 12
9 22 22 22 28 0 7 12 22 26 35 20 18 23 25 14 36 -14 17 -3 98 11 89 6 -3 7
-15 3 -27z m-277 9 c-5 -11 5 -13 44 -11 39 2 49 0 45 -10 -3 -10 1 -12 12 -9
12 4 11 2 -3 -7 -11 -7 -21 -11 -21 -8 -1 2 -11 -5 -23 -15 -21 -19 -21 -19
-21 7 0 22 -4 26 -22 24 -17 -1 -24 4 -26 21 -2 12 2 22 8 22 7 0 10 -6 7 -14z
m653 4 c0 -5 -8 -10 -17 -10 -15 0 -16 2 -3 10 19 12 20 12 20 0z m-5613 -47
c-3 -10 -5 -2 -5 17 0 19 2 27 5 18 2 -10 2 -26 0 -35z m4863 38 c0 -5 -7 -12
-16 -15 -14 -5 -15 -4 -4 9 14 17 20 19 20 6z m244 -35 c-7 -28 -24 -36 -24
-11 0 8 5 15 10 15 6 0 10 8 10 17 0 9 2 14 5 11 4 -3 3 -17 -1 -32z m-242 -4
c-7 -2 -12 -10 -12 -18 0 -8 -4 -14 -10 -14 -5 0 -10 6 -10 13 0 19 21 37 34
30 6 -4 6 -8 -2 -11z m328 -2 c0 -5 -4 -10 -10 -10 -5 0 -10 5 -10 10 0 6 5
10 10 10 6 0 10 -4 10 -10z m-215 -20 c-3 -5 -12 -10 -18 -10 -7 0 -6 4 3 10
19 12 23 12 15 0z m469 -4 c-21 -15 -30 -14 -19 3 3 6 14 11 23 11 13 0 13 -2
-4 -14z m-5457 -63 c-2 -16 -4 -5 -4 22 0 28 2 40 4 28 2 -13 2 -35 0 -50z
m4628 -13 c-3 -5 -12 -10 -18 -10 -7 0 -6 4 3 10 19 12 23 12 15 0z m653 -7
c-2 -12 4 -19 19 -21 12 -2 24 -10 27 -18 4 -12 1 -14 -14 -9 -13 4 -20 2 -20
-7 -1 -14 -30 48 -30 63 0 5 5 9 10 9 6 0 10 -8 8 -17z m78 -20 c-11 -11 -19
6 -11 24 8 17 8 17 12 0 3 -10 2 -21 -1 -24z m44 -13 c0 -5 -8 -10 -17 -10
-15 0 -16 2 -3 10 19 12 20 12 20 0z m-292 -46 c-14 -14 -15 -14 -10 11 3 19
8 23 15 16 8 -8 7 -16 -5 -27z m47 26 c3 -5 1 -10 -4 -10 -6 0 -11 5 -11 10 0
6 2 10 4 10 3 0 8 -4 11 -10z m209 -6 c4 -10 1 -14 -6 -12 -15 5 -23 28 -10
28 5 0 13 -7 16 -16z m-144 -14 c0 -5 -4 -10 -10 -10 -5 0 -10 5 -10 10 0 6 5
10 10 10 6 0 10 -4 10 -10z m-403 -6 c-3 -3 -12 -4 -19 -1 -8 3 -5 6 6 6 11 1
17 -2 13 -5z m-31 -60 c-3 -8 -13 -14 -23 -14 -16 1 -17 1 -1 10 10 6 14 18
11 32 -4 21 -3 21 7 5 6 -10 9 -25 6 -33z m78 -30 c13 -19 15 -29 7 -37 -8 -8
-11 -6 -11 7 0 9 -5 14 -10 11 -6 -4 -8 -10 -6 -14 11 -17 -9 -28 -34 -19
l-25 10 28 10 c24 8 28 14 23 34 -8 31 4 30 28 -2z m56 -34 c0 -5 -7 -10 -16
-10 -8 0 -12 5 -9 10 3 6 10 10 16 10 5 0 9 -4 9 -10z m20 -34 c0 -3 -4 -8
-10 -11 -5 -3 -10 -1 -10 4 0 6 5 11 10 11 6 0 10 -2 10 -4z m-20 -90 c0 -3
-4 -8 -10 -11 -5 -3 -10 -1 -10 4 0 6 5 11 10 11 6 0 10 -2 10 -4z m-4943 -63
c-3 -10 -5 -4 -5 12 0 17 2 24 5 18 2 -7 2 -21 0 -30z m4968 17 c3 -5 2 -10
-4 -10 -5 0 -18 -3 -28 -7 -16 -6 -16 -5 -4 10 15 19 27 22 36 7z m-5565 -285
c-6 -101 -7 -104 -8 -35 -2 67 7 155 13 148 2 -2 -1 -52 -5 -113z m570 -20 c0
-8 -4 -15 -10 -15 -5 0 -7 7 -4 15 4 8 8 15 10 15 2 0 4 -7 4 -15z m-563 -182
c-3 -10 -5 -2 -5 17 0 19 2 27 5 18 2 -10 2 -26 0 -35z m10 -125 c-2 -18 -4
-6 -4 27 0 33 2 48 4 33 2 -15 2 -42 0 -60z m560 -70 c-2 -13 -4 -5 -4 17 -1
22 1 32 4 23 2 -10 2 -28 0 -40z m0 -60 c-3 -7 -5 -2 -5 12 0 14 2 19 5 13 2
-7 2 -19 0 -25z m-560 -70 c-2 -13 -4 -5 -4 17 -1 22 1 32 4 23 2 -10 2 -28 0
-40z m0 -140 c-2 -18 -4 -6 -4 27 0 33 2 48 4 33 2 -15 2 -42 0 -60z m540 -95
c-3 -10 -5 -2 -5 17 0 19 2 27 5 18 2 -10 2 -26 0 -35z m22 -287 c1 -71 -1
-127 -3 -125 -2 2 -5 85 -8 184 -3 99 -2 155 2 125 5 -30 8 -113 9 -184z
m-552 -18 c-1 -46 -3 -11 -3 77 0 88 2 125 3 83 2 -42 2 -114 0 -160z m10
-205 c-3 -10 -5 -4 -5 12 0 17 2 24 5 18 2 -7 2 -21 0 -30z m0 -105 c-2 -18
-4 -6 -4 27 0 33 2 48 4 33 2 -15 2 -42 0 -60z m530 35 c-3 -10 -5 -2 -5 17 0
19 2 27 5 18 2 -10 2 -26 0 -35z m10 -100 c-2 -16 -4 -5 -4 22 0 28 2 40 4 28
2 -13 2 -35 0 -50z m-540 5 c-3 -8 -6 -5 -6 6 -1 11 2 17 5 13 3 -3 4 -12 1
-19z m550 -125 c-2 -16 -4 -3 -4 27 0 30 2 43 4 28 2 -16 2 -40 0 -55z m-540
-175 c-1 -40 -3 -10 -3 67 0 77 1 110 3 73 2 -37 2 -100 0 -140z m550 -40 c-3
-8 -6 -5 -6 6 -1 11 2 17 5 13 3 -3 4 -12 1 -19z m-47 -42 c0 -2 -8 -10 -17
-17 -16 -13 -17 -12 -4 4 13 16 21 21 21 13z m-513 -73 c-3 -10 -5 -2 -5 17 0
19 2 27 5 18 2 -10 2 -26 0 -35z m15 -203 c3 -72 2 -98 -3 -70 -8 45 -12 197
-5 189 2 -2 6 -56 8 -119z m398 66 c0 -2 -8 -10 -17 -17 -16 -13 -17 -12 -4 4
13 16 21 21 21 13z m-50 -39 c0 -2 -10 -12 -22 -23 l-23 -19 19 23 c18 21 26
27 26 19z m-86 -78 c-16 -17 -47 -45 -69 -62 -22 -16 -11 -3 25 31 70 66 92
81 44 31z m-189 -64 c-16 -14 -34 -25 -40 -25 -9 0 55 49 65 49 3 0 -8 -11
-25 -24z m7062 -63 c-10 -10 -17 -22 -17 -27 0 -12 -31 -45 -43 -45 -5 0 1 9
14 20 13 10 20 19 16 20 -12 0 -124 -82 -176 -130 -25 -22 -48 -40 -52 -40 -5
0 -6 -8 -3 -17 5 -15 4 -16 -5 -3 -7 10 -14 11 -18 4 -5 -5 -37 -33 -73 -62
-138 -109 -169 -137 -170 -148 0 -7 -8 -15 -17 -18 -15 -6 -15 -9 -3 -17 12
-9 11 -10 -4 -5 -27 9 -90 -52 -75 -71 8 -9 8 -13 1 -13 -6 0 -12 4 -14 9 -1
6 -27 -13 -56 -41 -29 -28 -50 -53 -47 -57 4 -3 11 2 16 12 6 9 15 17 20 17 6
0 8 -4 4 -9 -3 -5 2 -16 10 -24 20 -20 19 -23 -7 -31 -22 -7 -22 -7 -3 -16 11
-5 14 -9 8 -9 -7 -1 -13 -12 -13 -26 0 -25 -14 -33 -25 -15 -8 14 -35 13 -35
-1 0 -6 6 -9 14 -6 8 3 17 0 19 -8 8 -20 -4 -26 -20 -10 -18 19 -37 19 -30 1
3 -8 -1 -22 -9 -33 -15 -17 -15 -17 -11 5 5 19 2 22 -16 17 -21 -5 -21 -5 1 6
27 15 28 25 2 25 -11 0 -20 -5 -20 -11 0 -5 -5 -3 -10 5 -8 13 -11 13 -19 1
-5 -7 -13 -11 -18 -8 -5 3 -15 2 -22 -3 -10 -6 -8 -9 8 -15 21 -6 30 -35 11
-35 -5 0 -7 -6 -4 -14 3 -8 -3 -16 -16 -19 -12 -3 -19 -10 -15 -16 3 -6 1 -11
-4 -11 -6 0 -11 7 -11 16 0 11 -6 14 -22 10 -13 -3 -17 -3 -10 0 7 3 17 15 23
27 9 20 9 20 -4 5 -8 -10 -17 -18 -21 -18 -4 0 -23 -12 -42 -26 -27 -21 -32
-30 -23 -40 7 -9 8 -14 1 -14 -6 0 -12 5 -14 12 -3 7 -22 -3 -51 -27 -34 -28
-43 -41 -34 -48 8 -6 7 -7 -4 -4 -10 3 -27 -5 -40 -20 -13 -14 -50 -43 -81
-65 -35 -25 -58 -48 -58 -59 0 -11 5 -19 12 -19 6 0 9 -3 6 -6 -3 -3 -15 0
-26 7 -16 10 -23 10 -36 0 -9 -7 -14 -17 -11 -21 3 -4 -4 -10 -15 -13 -14 -4
-18 -10 -13 -23 5 -13 3 -16 -9 -11 -9 3 -23 -2 -34 -14 -19 -21 -6 -27 15 -6
11 10 13 10 7 0 -5 -8 -1 -13 9 -13 9 0 13 -4 10 -10 -9 -15 8 -12 33 6 13 9
22 11 22 4 0 -6 -12 -15 -27 -21 -20 -7 -30 -6 -41 5 -13 13 -17 12 -34 -9
-23 -30 -23 -38 2 -25 25 13 25 9 1 -18 -21 -25 -36 -29 -27 -7 7 19 -8 19
-27 1 -8 -8 -23 -13 -33 -10 -13 3 -37 -11 -72 -42 -29 -25 -55 -44 -57 -42
-7 7 108 103 125 104 32 2 60 16 70 35 14 26 4 24 -39 -7 -67 -48 137 143 226
212 48 37 126 102 173 144 193 173 282 243 292 229 8 -11 9 -10 5 3 -4 12 19
39 81 94 48 42 128 116 177 163 50 47 162 142 249 211 87 69 193 152 235 186
73 59 102 74 68 36z m-7012 8 c-3 -5 -16 -15 -28 -21 -19 -9 -19 -8 3 10 28
23 34 26 25 11z m-24 -137 c13 -16 12 -17 -3 -4 -10 7 -18 15 -18 17 0 8 8 3
21 -13z m6916 -71 c-14 -21 -41 -70 -60 -108 -62 -121 -349 -488 -473 -604
-20 -19 10 19 69 85 58 66 130 152 159 190 30 39 83 108 118 154 73 96 172
270 165 289 -3 7 -1 10 5 7 5 -3 14 4 20 16 7 11 14 18 17 15 3 -3 -6 -23 -20
-44z m-77 -12 c0 -5 -7 -10 -16 -10 -8 0 -12 5 -9 10 3 6 10 10 16 10 5 0 9
-4 9 -10z m-6725 -40 c10 -11 16 -20 13 -20 -3 0 -13 9 -23 20 -10 11 -16 20
-13 20 3 0 13 -9 23 -20z m6708 13 c-7 -2 -19 -2 -25 0 -7 3 -2 5 12 5 14 0
19 -2 13 -5z m23 -26 c4 -4 -5 -7 -19 -7 -15 0 -27 4 -27 8 0 10 36 9 46 -1z
m-5566 -42 c13 -14 21 -25 18 -25 -2 0 -15 11 -28 25 -13 14 -21 25 -18 25 2
0 15 -11 28 -25z m5552 3 c-7 -7 -12 -8 -12 -2 0 14 12 26 19 19 2 -3 -1 -11
-7 -17z m-262 -142 c0 -11 -19 -15 -25 -6 -3 5 1 10 9 10 9 0 16 -2 16 -4z
m-50 -66 c0 -5 -7 -10 -15 -10 -8 0 -15 5 -15 10 0 6 7 10 15 10 8 0 15 -4 15
-10z m-65 -20 c-3 -5 -10 -10 -16 -10 -5 0 -9 5 -9 10 0 6 7 10 16 10 8 0 12
-4 9 -10z m0 -30 c-3 -5 -12 -10 -18 -10 -7 0 -6 4 3 10 19 12 23 12 15 0z
m35 -70 c0 -5 -2 -10 -4 -10 -3 0 -8 5 -11 10 -3 6 -1 10 4 10 6 0 11 -4 11
-10z m-5929 -47 c13 -16 12 -17 -3 -4 -17 13 -22 21 -14 21 2 0 10 -8 17 -17z
m1209 -78 c19 -19 32 -35 29 -35 -3 0 -20 16 -39 35 -19 19 -32 35 -29 35 3 0
20 -16 39 -35z m-1125 -5 c10 -11 16 -20 13 -20 -3 0 -13 9 -23 20 -10 11 -16
20 -13 20 3 0 13 -9 23 -20z m5693 -39 c10 -6 7 -10 -12 -13 -18 -4 -26 -1
-26 8 0 16 18 18 38 5z m-174 -55 c-3 -8 -13 -17 -22 -21 -13 -5 -13 -2 3 15
21 24 26 25 19 6z m-74 -22 c0 -9 -6 -14 -12 -11 -7 2 -18 -3 -25 -12 -11 -14
-12 -13 -13 6 0 15 7 23 23 26 12 2 23 5 25 6 1 0 2 -6 2 -15z m7 -30 c-3 -3
-12 -4 -19 -1 -8 3 -5 6 6 6 11 1 17 -2 13 -5z m134 -7 c-6 -8 -8 -17 -4 -20
3 -4 2 -7 -4 -7 -17 0 -23 13 -12 27 6 7 16 13 21 13 7 0 6 -5 -1 -13z m-221
-27 c0 -5 -5 -10 -11 -10 -5 0 -7 5 -4 10 3 6 8 10 11 10 2 0 4 -4 4 -10z
m140 -10 c8 -5 13 -10 10 -11 -3 0 -14 -2 -24 -4 -24 -5 -38 3 -31 16 8 12 26
11 45 -1z m64 -128 c-72 -70 -177 -170 -235 -222 -57 -52 -169 -158 -249 -236
-80 -77 -188 -180 -240 -230 -378 -354 -661 -624 -820 -779 -285 -280 -460
-449 -515 -496 -27 -24 -75 -67 -105 -96 -126 -118 -517 -435 -484 -393 14 18
44 147 44 192 1 18 7 44 16 58 l15 25 -6 -30 c-3 -16 -7 -49 -10 -72 -2 -24
-11 -65 -19 -93 -8 -27 -13 -50 -10 -50 14 0 213 173 208 181 -3 5 -1 8 4 7 5
-2 30 12 56 30 47 34 58 46 32 36 -8 -3 -17 0 -21 7 -6 9 -1 10 19 7 22 -4 39
6 104 64 42 38 76 74 74 79 -1 6 1 8 6 5 9 -5 273 236 280 255 2 5 -3 9 -11 9
-20 0 -49 29 -42 41 9 14 25 11 19 -4 -3 -8 7 -19 22 -26 26 -12 30 -9 138 98
61 60 176 173 256 250 80 78 143 147 142 154 -2 7 0 9 4 4 10 -9 65 43 58 55
-3 5 0 7 8 6 7 -2 12 3 10 10 -1 8 2 11 8 7 6 -4 45 27 88 68 42 41 107 103
144 137 50 47 65 66 57 76 -6 8 -6 14 0 18 5 4 11 -1 13 -9 2 -11 18 -1 53 32
250 233 359 336 475 448 74 72 160 153 190 180 134 122 180 169 180 182 0 8 5
11 11 8 5 -4 42 25 80 64 39 39 73 71 77 71 4 0 -52 -58 -124 -128z m-64 87
c0 -6 -4 -7 -10 -4 -5 3 -10 11 -10 16 0 6 5 7 10 4 6 -3 10 -11 10 -16z m-35
-9 c-3 -5 -11 -10 -16 -10 -6 0 -7 5 -4 10 3 6 11 10 16 10 6 0 7 -4 4 -10z
m-10 -58 c-8 -9 -25 20 -18 31 3 5 10 2 15 -7 6 -10 7 -20 3 -24z m-5174 1
c13 -16 12 -17 -3 -4 -17 13 -22 21 -14 21 2 0 10 -8 17 -17z m4838 -59 c-6
-8 -15 -14 -20 -14 -14 0 -11 28 4 33 20 7 29 -4 16 -19z m231 -4 c0 -5 -4
-10 -10 -10 -5 0 -10 5 -10 10 0 6 5 10 10 10 6 0 10 -4 10 -10z m90 0 c0 -13
-11 -13 -30 0 -12 8 -11 10 8 10 12 0 22 -4 22 -10z m-5057 -36 c37 -44 30
-44 -13 1 -19 19 -30 35 -24 34 5 0 22 -16 37 -35z m5017 16 c0 -5 -2 -10 -4
-10 -3 0 -8 5 -11 10 -3 6 -1 10 4 10 6 0 11 -4 11 -10z m-195 -70 c3 -5 1
-10 -4 -10 -6 0 -11 5 -11 10 0 6 2 10 4 10 3 0 8 -4 11 -10z m-4745 -25 c13
-14 21 -25 18 -25 -2 0 -15 11 -28 25 -13 14 -21 25 -18 25 2 0 15 -11 28 -25z
m4675 -5 c3 -5 1 -10 -4 -10 -6 0 -11 5 -11 10 0 6 2 10 4 10 3 0 8 -4 11 -10z
m75 -20 c0 -5 -2 -10 -4 -10 -3 0 -8 5 -11 10 -3 6 -1 10 4 10 6 0 11 -4 11
-10z m-4635 -91 c44 -45 73 -78 65 -73 -16 10 -156 154 -149 154 3 0 40 -37
84 -81z m4472 59 c-3 -8 -6 -5 -6 6 -1 11 2 17 5 13 3 -3 4 -12 1 -19z m3 -32
c0 -3 -4 -8 -10 -11 -5 -3 -10 -1 -10 4 0 6 5 11 10 11 6 0 10 -2 10 -4z m-93
-33 c2 -6 -4 -13 -13 -17 -14 -5 -15 -4 -5 8 7 8 8 16 4 18 -4 3 -4 4 1 3 6
-1 11 -6 13 -12z m-3276 -10 c13 -16 12 -17 -3 -4 -17 13 -22 21 -14 21 2 0
10 -8 17 -17z m3160 -16 c-11 -12 -24 -17 -28 -13 -4 4 0 12 10 17 9 6 15 14
12 20 -3 5 1 6 10 2 15 -5 14 -8 -4 -26z m164 23 c4 -6 10 -8 15 -5 4 3 6 -4
3 -15 -3 -11 -9 -17 -14 -14 -5 3 -7 10 -4 15 4 5 2 9 -4 9 -5 0 -12 -6 -14
-12 -3 -7 -6 -3 -6 10 -1 23 13 30 24 12z m59 1 c3 -5 -1 -11 -9 -15 -9 -3
-15 0 -15 9 0 16 16 20 24 6z m-3343 -48 c13 -16 12 -17 -3 -4 -17 13 -22 21
-14 21 2 0 10 -8 17 -17z m3189 13 c0 -3 -4 -8 -10 -11 -5 -3 -10 -1 -10 4 0
6 5 11 10 11 6 0 10 -2 10 -4z m160 -6 c0 -5 -5 -10 -11 -10 -5 0 -7 5 -4 10
3 6 8 10 11 10 2 0 4 -4 4 -10z m-220 -30 c0 -5 -6 -7 -14 -4 -9 3 -17 -3 -21
-15 -3 -12 -11 -21 -16 -21 -6 0 -1 14 11 30 20 28 40 32 40 10z m-175 -23
c-56 -41 -125 -109 -119 -119 3 -5 12 -4 20 3 8 6 25 8 39 5 14 -4 25 -2 25 4
0 5 4 10 10 10 5 0 7 -7 4 -15 -4 -8 -16 -15 -28 -15 -11 0 -28 -5 -36 -10
-13 -9 -13 -10 0 -11 8 -1 20 -2 25 -4 6 -1 16 -3 24 -3 11 -2 11 -5 0 -19
-12 -15 -12 -16 5 -10 15 6 17 4 13 -13 -4 -15 1 -24 16 -31 21 -8 21 -9 -3
-6 -17 1 -25 8 -24 20 1 9 -4 17 -12 17 -8 0 -14 7 -14 15 0 8 -5 15 -12 15
-6 0 -8 -3 -5 -7 4 -3 1 -13 -7 -22 -7 -9 -17 -27 -20 -41 -7 -24 -6 -24 8 -6
8 10 17 24 20 30 3 7 8 6 15 -4 16 -22 13 -34 -4 -20 -13 10 -15 9 -15 -10 0
-15 -5 -20 -17 -18 -11 2 -18 12 -17 26 0 12 -3 22 -8 22 -5 0 -6 5 -3 10 3 6
1 10 -4 10 -10 0 -15 -14 -12 -34 2 -12 -31 -35 -51 -36 -19 0 -26 -20 -8 -20
6 0 10 -5 10 -11 0 -6 -9 -9 -20 -6 -10 3 -19 2 -19 -2 3 -19 -15 -51 -29 -51
-8 0 -24 -8 -35 -17 -19 -18 -19 -17 -6 5 8 12 22 22 31 22 29 0 27 51 -4 82
-19 19 -21 19 -39 2 -10 -9 -19 -15 -19 -12 0 17 330 299 349 298 3 0 -7 -11
-24 -23z m-3835 -174 c91 -96 176 -188 189 -206 14 -18 -29 24 -94 93 -65 69
-148 154 -184 190 -81 80 -110 113 -90 104 8 -3 88 -85 179 -181z m4097 167
c3 -11 10 -17 17 -13 6 3 3 -3 -7 -15 -21 -23 -14 -47 10 -38 9 4 13 1 11 -6
-3 -7 -12 -14 -22 -16 -9 -2 -15 0 -14 5 2 4 -8 19 -21 32 -23 23 -24 24 -39
5 -11 -14 -13 -15 -9 -3 3 9 -1 26 -9 38 -9 13 -11 21 -4 21 6 0 13 -7 16 -15
7 -17 34 -21 34 -5 0 6 3 9 8 9 19 -3 25 2 12 11 -11 7 -12 10 -2 10 8 0 16
-9 19 -20z m50 -15 c-7 -13 -14 -20 -15 -14 -5 14 6 39 17 39 5 0 4 -11 -2
-25z m-137 -16 c0 -4 -7 -6 -15 -3 -8 4 -15 10 -15 15 0 4 7 6 15 3 8 -4 15
-10 15 -15z m20 -44 c0 -2 -9 -9 -20 -15 -12 -6 -20 -7 -20 -1 0 5 8 12 18 14
9 3 18 5 20 6 1 0 2 -1 2 -4z m124 -10 c-4 -8 -8 -15 -10 -15 -2 0 -4 7 -4 15
0 8 4 15 10 15 5 0 7 -7 4 -15z m-77 -11 c-3 -4 1 -13 9 -21 8 -8 11 -19 8
-25 -4 -6 -12 -1 -20 13 -12 22 -10 39 3 39 4 0 4 -3 0 -6z m-110 -36 c-3 -8
-6 -5 -6 6 -1 11 2 17 5 13 3 -3 4 -12 1 -19z m-2897 -8 c8 -5 12 -11 9 -14
-3 -3 -14 1 -25 9 -21 16 -8 20 16 5z m63 -66 c34 -39 51 -64 43 -64 -2 0 -23
23 -46 50 -48 57 -46 68 3 14z m2937 7 c0 -6 -5 -13 -12 -17 -6 -4 -8 -3 -4 4
3 5 0 13 -6 15 -8 3 -6 6 5 6 9 1 17 -3 17 -8z m-40 -5 c0 -2 -7 -6 -15 -10
-8 -3 -15 -1 -15 4 0 6 7 10 15 10 8 0 15 -2 15 -4z m-293 -67 c43 -24 55 -34
33 -27 -8 3 -25 1 -37 -3 -17 -6 -25 -4 -32 8 -8 14 -12 15 -25 4 -14 -11 -16
-11 -16 2 0 9 8 21 18 26 22 13 16 14 59 -10z m53 11 c0 -5 -5 -10 -11 -10 -5
0 -7 5 -4 10 3 6 8 10 11 10 2 0 4 -4 4 -10z m-343 -61 c-46 -41 -55 -54 -46
-65 8 -9 8 -14 1 -14 -6 0 -14 5 -17 10 -4 6 -29 -8 -59 -32 -29 -24 -66 -53
-82 -66 -22 -17 -24 -22 -9 -18 19 6 20 6 1 -9 -10 -8 -22 -12 -26 -10 -4 3
-34 -20 -66 -50 -33 -30 -53 -54 -46 -55 7 0 10 -5 7 -10 -4 -6 -15 -8 -24 -5
-12 3 -36 -11 -73 -42 -30 -27 -72 -62 -93 -79 -41 -32 -41 -54 0 -54 13 0 26
-4 29 -9 4 -5 -2 -7 -13 -4 -10 3 -22 0 -26 -6 -4 -8 -13 -4 -24 11 -17 21
-19 21 -35 5 -10 -9 -22 -17 -27 -17 -5 0 -9 -9 -9 -20 0 -13 -7 -20 -19 -20
-11 0 -30 -12 -43 -27 -13 -16 -36 -35 -50 -43 -32 -19 -111 -84 -162 -132
-21 -21 -42 -38 -47 -38 -9 0 -56 -40 -117 -97 -18 -18 -31 -37 -27 -43 4 -6
1 -9 -6 -8 -7 2 -23 -12 -36 -31 -12 -19 -23 -30 -23 -26 0 13 41 75 50 75 5
0 11 8 14 18 6 19 40 47 553 466 87 71 181 150 208 176 28 25 95 82 149 125
54 44 131 106 170 137 88 72 101 75 23 7z m-2227 16 c13 -14 21 -25 18 -25 -2
0 -15 11 -28 25 -13 14 -21 25 -18 25 2 0 15 -11 28 -25z m2515 -15 c0 -8 52
-5 57 4 4 6 11 7 15 2 4 -4 -1 -14 -11 -22 -20 -14 -20 -14 0 -14 11 0 26 6
33 13 11 9 10 7 0 -10 -8 -14 -24 -23 -39 -24 -14 0 -19 -3 -12 -6 22 -9 12
-20 -15 -16 -16 2 -38 5 -51 7 -12 1 -25 6 -29 9 -6 7 11 11 35 8 6 -1 12 8
12 20 0 18 -2 19 -15 9 -10 -9 -15 -9 -15 -1 0 6 -5 11 -11 11 -5 0 -7 -4 -4
-10 3 -5 -3 -10 -14 -10 -14 0 -21 6 -21 20 0 16 6 19 43 15 23 -2 42 -4 42
-5z m-95 -25 c0 -14 5 -25 12 -25 6 0 8 -3 5 -7 -10 -9 -44 30 -39 45 7 21 22
13 22 -13z m180 -55 c0 -5 -5 -10 -11 -10 -5 0 -7 5 -4 10 3 6 8 10 11 10 2 0
4 -4 4 -10z m-3564 -42 l29 -33 -32 29 c-31 28 -38 36 -30 36 2 0 16 -15 33
-32z m1158 -47 c46 -48 27 -36 -34 21 -30 28 -41 42 -25 31 17 -12 43 -35 59
-52z m2019 51 c-3 -7 0 -12 7 -10 7 2 14 -2 17 -8 2 -7 -7 -11 -22 -11 -14 0
-25 3 -25 7 0 5 -2 15 -5 22 -4 9 2 14 14 14 11 0 17 -5 14 -14z m372 8 c8
-13 -5 -13 -25 0 -13 8 -13 10 2 10 9 0 20 -4 23 -10z m-325 -45 c-7 -8 -22
-15 -34 -15 -20 0 -19 1 4 14 34 19 45 19 30 1z m-163 -21 c-3 -3 -12 -4 -19
-1 -8 3 -5 6 6 6 11 1 17 -2 13 -5z m163 -14 c-8 -15 -8 -20 2 -20 9 0 9 -3 1
-11 -9 -9 -16 -7 -29 5 -9 9 -15 18 -13 19 2 1 13 7 24 14 27 16 27 16 15 -7z
m-2976 -190 c28 -30 -4 -1 -72 65 -67 66 -122 124 -122 130 0 9 51 -42 194
-195z m2775 172 c-7 -3 -17 -10 -21 -16 -4 -6 -10 -7 -13 -4 -11 11 19 36 34
30 13 -5 13 -6 0 -10z m441 8 c0 -5 -5 -10 -11 -10 -5 0 -7 5 -4 10 3 6 8 10
11 10 2 0 4 -4 4 -10z m-77 -17 c-5 -12 -3 -14 7 -8 8 5 11 4 6 -3 -9 -15 -36
-4 -36 14 0 8 7 14 15 14 9 0 12 -6 8 -17z m-273 -7 c0 -2 -8 -10 -17 -17 -16
-13 -17 -12 -4 4 13 16 21 21 21 13z m124 -32 c3 -8 2 -12 -4 -9 -6 3 -10 10
-10 16 0 14 7 11 14 -7z m43 10 c-3 -3 -12 -4 -19 -1 -8 3 -5 6 6 6 11 1 17
-2 13 -5z m-237 -21 c0 -10 -4 -14 -8 -8 -4 6 -11 13 -16 18 -5 4 -2 7 7 7 10
0 17 -8 17 -17z m340 -3 c0 -5 -8 -10 -17 -10 -15 0 -16 2 -3 10 19 12 20 12
20 0z m-265 -9 c3 -5 1 -12 -5 -16 -5 -3 -10 1 -10 9 0 18 6 21 15 7z m186
-10 c-7 -5 -23 -6 -35 -3 -19 6 -18 7 9 12 34 7 46 3 26 -9z m-1965 -43 c27
-29 58 -64 69 -78 11 -14 1 -7 -20 15 -22 22 -56 57 -77 78 -20 20 -34 37 -30
37 4 0 30 -24 58 -52z m1752 34 c2 -7 -2 -10 -12 -6 -9 3 -16 11 -16 16 0 13
23 5 28 -10z m270 -1 c7 -2 -26 -42 -52 -62 -20 -16 -30 -19 -39 -10 -8 8 -8
11 1 11 7 0 12 5 12 10 0 16 -28 11 -38 -6 -6 -11 -11 -13 -16 -5 -4 6 -19 11
-33 11 -19 0 -24 -4 -21 -18 4 -15 0 -17 -23 -14 -31 5 -40 22 -12 22 15 0 14
2 -3 15 -22 16 -38 20 -29 6 3 -5 1 -12 -4 -15 -5 -3 -11 1 -14 9 -4 9 2 17
16 21 12 4 23 2 25 -5 6 -18 22 -2 16 17 -5 14 -4 14 6 -1 9 -14 19 -17 37
-12 14 3 22 2 19 -4 -3 -5 1 -12 10 -15 20 -8 46 12 37 27 -4 6 2 8 17 4 13
-3 28 0 36 8 11 11 25 13 52 6z m-507 -90 c-4 -19 -6 -21 -9 -8 -2 9 -7 17
-11 17 -12 0 -9 34 3 42 14 9 24 -19 17 -51z m-1556 39 c-3 -5 -14 -10 -23
-10 -15 0 -15 2 -2 10 20 13 33 13 25 0z m1601 -50 c25 0 15 -21 -16 -31 -16
-6 -28 -15 -25 -19 3 -4 -4 -6 -15 -3 -16 4 -17 7 -5 19 7 8 24 14 36 14 22 0
22 1 4 13 -12 10 -15 19 -9 28 7 11 9 11 12 -3 2 -10 10 -18 18 -18z m309 20
c3 -5 1 -10 -4 -10 -6 0 -11 5 -11 10 0 6 2 10 4 10 3 0 8 -4 11 -10z m-432
-25 c-3 -9 -8 -14 -10 -11 -3 3 -2 9 2 15 9 16 15 13 8 -4z m266 -8 c-9 -8
-23 -11 -39 -6 l-25 7 27 1 c15 1 30 6 33 12 4 6 9 8 12 5 3 -3 -1 -11 -8 -19z
m152 6 c16 4 18 3 8 -9 -6 -8 -18 -14 -25 -14 -8 0 -14 -4 -14 -10 0 -5 5 -10
12 -10 25 0 -4 -13 -31 -14 -22 -1 -27 2 -19 11 5 7 7 17 3 23 -4 6 -1 9 7 8
8 -2 12 4 10 16 -3 17 -2 18 12 7 9 -7 25 -11 37 -8z m-91 -13 c0 -4 -12 -7
-27 -7 -16 0 -22 2 -15 4 6 3 10 8 7 13 -3 4 4 6 15 3 11 -3 20 -9 20 -13z
m-290 -44 c0 -13 -6 -26 -14 -29 -11 -4 -14 1 -11 21 3 33 3 32 15 32 6 0 10
-11 10 -24z m253 12 c-2 -5 -23 -8 -46 -9 -33 0 -38 -2 -22 -9 19 -8 19 -9 -2
-9 -25 -1 -26 0 -17 24 5 12 17 15 49 13 24 -2 41 -6 38 -10z m47 8 c0 -3 -4
-8 -10 -11 -5 -3 -10 -1 -10 4 0 6 5 11 10 11 6 0 10 -2 10 -4z m-1649 -23
c13 -16 12 -17 -3 -4 -17 13 -22 21 -14 21 2 0 10 -8 17 -17z m1438 -28 l0
-20 -9 20 c-5 11 -9 27 -9 35 -1 13 0 13 9 0 5 -8 9 -24 9 -35z m-239 25 c0
-5 -7 -10 -16 -10 -8 0 -12 5 -9 10 3 6 10 10 16 10 5 0 9 -4 9 -10z m323 -26
c11 -11 -14 -46 -28 -40 -9 3 -12 0 -8 -10 3 -7 1 -14 -4 -14 -5 0 -9 9 -10
21 -2 16 3 20 18 16 16 -4 19 -2 14 14 -6 18 5 26 18 13z m-1448 -34 c10 -11
16 -20 13 -20 -3 0 -13 9 -23 20 -10 11 -16 20 -13 20 3 0 13 -9 23 -20z
m1050 -10 c3 -5 2 -10 -4 -10 -5 0 -13 5 -16 10 -3 6 -2 10 4 10 5 0 13 -4 16
-10z m102 -10 c13 0 13 -3 3 -15 -15 -18 1 -20 18 -3 9 9 12 8 12 -5 0 -28
-39 -21 -50 9 -10 25 -13 50 -3 27 2 -7 12 -13 20 -13z m213 0 c-19 -12 -30
-12 -30 -1 0 10 31 20 40 14 2 -2 -2 -8 -10 -13z m-275 -10 c-10 -11 -22 -17
-27 -14 -5 4 1 12 14 19 32 18 34 18 13 -5z m243 -1 c10 -14 10 -18 -1 -22
-10 -4 -14 2 -14 19 0 14 0 24 1 22 1 -2 7 -10 14 -19z m-2346 -114 c15 -22
11 -20 -17 10 -73 78 -90 101 -47 60 24 -22 53 -53 64 -70z m2047 98 c-9 -2
-22 -14 -29 -27 -7 -13 -23 -29 -37 -35 -29 -14 -33 -14 -33 -1 0 6 9 10 19
10 11 0 23 5 27 12 5 7 0 9 -14 6 -15 -4 -19 -2 -15 8 3 8 9 15 14 15 5 1 13
2 18 3 5 0 13 4 17 9 4 4 17 6 28 6 15 -1 16 -3 5 -6z m196 -13 c3 -5 1 -10
-4 -10 -6 0 -11 5 -11 10 0 6 2 10 4 10 3 0 8 -4 11 -10z m-150 -10 c3 -5 2
-10 -4 -10 -5 0 -13 5 -16 10 -3 6 -2 10 4 10 5 0 13 -4 16 -10z m-19 -27 c-7
-7 -26 7 -26 19 0 6 6 6 15 -2 9 -7 13 -15 11 -17z m135 13 c-10 -12 -8 -13
11 -9 13 3 29 11 37 17 11 9 13 8 9 -4 -2 -8 -15 -21 -29 -27 l-24 -13 28 0
c15 0 27 -4 27 -9 0 -5 -9 -7 -20 -4 -13 3 -20 0 -20 -8 0 -10 -3 -10 -12 -1
-17 17 -31 15 -24 -3 3 -8 1 -15 -4 -15 -9 0 -15 23 -11 44 1 5 -4 13 -11 18
-10 7 -10 9 2 5 8 -2 21 2 28 10 18 17 28 17 13 -1z m-999 -91 c59 -49 107
-93 107 -98 1 -9 -77 52 -134 105 -22 20 -53 49 -70 63 -16 15 -25 25 -20 24
6 -2 59 -44 117 -94z m792 50 c-10 -8 -23 -15 -28 -15 -6 0 -1 7 10 15 10 8
23 15 28 15 6 0 1 -7 -10 -15z m21 -25 c-3 -5 -16 -10 -28 -10 -18 0 -19 2 -7
10 20 13 43 13 35 0z m95 6 c0 -3 -4 -8 -10 -11 -5 -3 -10 -1 -10 4 0 6 5 11
10 11 6 0 10 -2 10 -4z m177 -18 c-3 -8 -6 -5 -6 6 -1 11 2 17 5 13 3 -3 4
-12 1 -19z m-172 -8 c-3 -5 -14 -10 -23 -9 -14 0 -13 2 3 9 27 11 27 11 20 0z
m-45 -10 c0 -5 -2 -10 -4 -10 -3 0 -8 5 -11 10 -3 6 -1 10 4 10 6 0 11 -4 11
-10z m115 0 c3 -5 2 -10 -3 -10 -5 0 -14 -12 -20 -26 -7 -14 -16 -23 -21 -19
-5 3 -12 1 -15 -4 -4 -5 2 -12 11 -14 10 -3 -2 -3 -27 -1 -37 4 -41 3 -22 -6
20 -8 23 -15 18 -42 -3 -18 -3 -27 0 -20 3 6 13 12 22 12 10 0 32 9 50 20 36
22 46 25 37 10 -3 -5 1 -10 9 -10 9 0 16 9 16 20 0 11 6 20 14 20 8 0 17 6 19
13 3 7 6 4 6 -7 1 -13 6 -16 19 -11 14 5 14 3 -3 -12 -26 -25 -55 -36 -82 -34
-13 1 -23 -2 -23 -8 0 -6 -15 -11 -32 -12 -33 0 -33 0 -8 -11 14 -6 28 -10 32
-10 4 1 5 -5 2 -13 -4 -10 -21 -15 -51 -15 -40 0 -44 2 -33 15 11 13 10 14 -2
10 -9 -4 -18 1 -21 9 -4 9 -3 16 1 16 4 0 8 9 8 20 0 11 -6 20 -13 20 -7 0
-13 5 -13 11 0 6 -9 8 -22 4 -22 -6 -22 -6 2 14 13 11 27 18 31 15 4 -2 12 3
19 11 7 8 24 15 39 16 14 0 20 3 14 6 -22 8 -14 25 8 18 15 -5 19 -4 15 4 -4
6 -3 11 3 11 5 0 13 -4 16 -10z m50 -18 c-3 -3 -11 0 -18 7 -9 10 -8 11 6 5
10 -3 15 -9 12 -12z m-2161 -28 c7 -19 2 -18 -19 6 -16 17 -16 20 -3 15 9 -4
19 -13 22 -21z m1866 6 c0 -5 -8 -10 -17 -10 -15 0 -16 2 -3 10 19 12 20 12
20 0z m273 3 c-7 -2 -19 -2 -25 0 -7 3 -2 5 12 5 14 0 19 -2 13 -5z m-348 -13
c3 -5 1 -10 -4 -10 -6 0 -11 5 -11 10 0 6 2 10 4 10 3 0 8 -4 11 -10z m465 -6
c0 -2 -7 -4 -15 -4 -8 0 -15 4 -15 10 0 5 7 7 15 4 8 -4 15 -8 15 -10z m-540
-14 c0 -5 -5 -10 -11 -10 -5 0 -7 5 -4 10 3 6 8 10 11 10 2 0 4 -4 4 -10z
m413 3 c-7 -2 -19 -2 -25 0 -7 3 -2 5 12 5 14 0 19 -2 13 -5z m-453 -33 c0 -5
-2 -10 -4 -10 -3 0 -8 5 -11 10 -3 6 -1 10 4 10 6 0 11 -4 11 -10z m415 0 c-3
-5 -12 -10 -20 -10 -8 0 -17 5 -20 10 -4 6 5 10 20 10 15 0 24 -4 20 -10z
m-790 -48 c-3 -3 -18 7 -33 23 l-27 28 33 -23 c18 -12 31 -25 27 -28z m602 12
c-3 -3 -12 -4 -19 -1 -8 3 -5 6 6 6 11 1 17 -2 13 -5z m257 -3 c3 -5 0 -14 -8
-20 -10 -9 -15 -8 -19 3 -9 22 15 37 27 17z m-204 -12 c0 -5 -4 -7 -10 -4 -5
3 -10 -1 -10 -10 0 -9 5 -13 10 -10 6 3 10 2 10 -4 0 -5 -9 -9 -20 -8 -23 1
-23 2 -10 28 11 20 30 26 30 8z m-1815 -39 c21 -22 37 -40 34 -40 -3 0 -23 18
-44 40 -21 22 -37 40 -34 40 3 0 23 -18 44 -40z m1545 35 c0 -2 -10 -9 -22
-15 -22 -11 -22 -10 -4 4 21 17 26 19 26 11z m120 -5 c0 -5 -5 -10 -11 -10 -5
0 -7 5 -4 10 3 6 8 10 11 10 2 0 4 -4 4 -10z m100 0 c0 -5 -7 -7 -15 -4 -8 4
-15 8 -15 10 0 2 7 4 15 4 8 0 15 -4 15 -10z m-579 -41 c-5 -13 -10 -19 -10
-12 -1 15 10 45 15 40 3 -2 0 -15 -5 -28z m443 -4 c-5 -11 1 -15 24 -15 16 0
35 -8 43 -17 7 -10 9 -15 5 -11 -5 4 -15 3 -23 -4 -10 -8 -17 -7 -27 7 -9 12
-20 16 -37 12 -13 -3 -31 -2 -39 4 -11 8 -9 9 8 4 18 -5 25 -2 29 14 3 12 9
21 14 21 5 0 6 -7 3 -15z m139 -12 c-7 -2 -19 -2 -25 0 -7 3 -2 5 12 5 14 0
19 -2 13 -5z m91 -15 c-3 -5 -12 -7 -20 -4 -8 3 -14 1 -14 -4 0 -6 10 -10 23
-11 17 -1 15 -3 -9 -8 -42 -11 -56 -21 -50 -37 3 -8 0 -11 -9 -8 -8 3 -11 12
-8 20 3 8 0 14 -6 14 -6 0 -11 -4 -11 -10 0 -14 -37 -13 -46 1 -3 6 -1 15 6
19 7 4 9 13 6 19 -4 6 -1 11 8 11 8 0 18 -5 21 -10 4 -7 13 -6 27 1 18 10 20
9 15 -5 -8 -21 12 -11 31 15 13 18 47 15 36 -3z m-1783 -35 c13 -16 12 -17 -3
-4 -17 13 -22 21 -14 21 2 0 10 -8 17 -17z m1569 13 c0 -3 -4 -8 -10 -11 -5
-3 -10 -1 -10 4 0 6 5 11 10 11 6 0 10 -2 10 -4z m-150 -40 c0 -3 -4 -8 -10
-11 -5 -3 -10 -1 -10 4 0 6 5 11 10 11 6 0 10 -2 10 -4z m245 -16 c-3 -5 -10
-10 -16 -10 -5 0 -9 5 -9 10 0 6 7 10 16 10 8 0 12 -4 9 -10z m-470 -20 c-3
-11 -8 -31 -11 -45 -2 -14 -12 -47 -21 -73 -9 -26 -22 -69 -29 -97 l-13 -50 6
45 c3 25 11 59 18 77 8 18 17 54 21 80 6 47 20 83 30 83 3 0 3 -9 -1 -20z
m183 2 c2 -7 -2 -10 -12 -6 -9 3 -16 11 -16 16 0 13 23 5 28 -10z m42 -12
c-24 -15 -36 -11 -14 4 10 8 21 12 24 10 2 -3 -2 -9 -10 -14z m197 14 c-3 -3
-12 -4 -19 -1 -8 3 -5 6 6 6 11 1 17 -2 13 -5z m-540 -26 c-3 -8 -6 -5 -6 6
-1 11 2 17 5 13 3 -3 4 -12 1 -19z m139 -5 c-10 -10 -19 5 -10 18 6 11 8 11
12 0 2 -7 1 -15 -2 -18z m534 17 c12 -8 11 -10 -7 -10 -13 0 -23 5 -23 10 0
13 11 13 30 0z m-1656 -29 c-2 -3 -12 3 -22 13 -16 17 -16 18 5 5 12 -7 20
-15 17 -18z m1539 4 c-20 -27 -36 -33 -27 -10 4 9 0 16 -7 16 -8 1 0 5 16 9
17 4 31 8 33 9 2 0 -5 -10 -15 -24z m-572 -36 c-5 -13 -10 -19 -10 -12 -1 15
10 45 15 40 3 -2 0 -15 -5 -28z m409 17 c0 -11 -19 -15 -25 -6 -3 5 1 10 9 10
9 0 16 -2 16 -4z m-1304 -48 l29 -33 -30 25 c-16 14 -34 28 -39 32 -6 5 -6 8
0 8 6 0 23 -15 40 -32z m1239 22 c3 -5 1 -10 -4 -10 -6 0 -11 5 -11 10 0 6 2
10 4 10 3 0 8 -4 11 -10z m62 -13 c4 -7 0 -8 -11 -4 -10 4 -22 7 -27 7 -5 0
-9 4 -9 9 0 12 38 2 47 -12z m-177 -32 c0 -3 -9 -15 -20 -27 -20 -21 -20 -21
-20 -2 0 12 3 24 7 27 8 8 33 9 33 2z m40 -23 c0 -15 -2 -15 -10 -2 -13 20
-13 33 0 25 6 -3 10 -14 10 -23z m-315 -59 c-9 -15 -13 -19 -10 -8 4 11 9 34
13 50 5 25 7 27 10 8 2 -12 -4 -34 -13 -50z m280 -12 c-4 -11 -8 -11 -21 -1
-10 9 -12 16 -4 24 5 5 10 19 11 31 0 14 3 12 10 -10 5 -16 7 -36 4 -44z m85
59 c0 -5 -4 -10 -10 -10 -5 0 -10 5 -10 10 0 6 5 10 10 10 6 0 10 -4 10 -10z
m210 -20 c0 -5 -2 -10 -4 -10 -3 0 -8 5 -11 10 -3 6 -1 10 4 10 6 0 11 -4 11
-10z m-230 -10 c0 -5 -2 -10 -4 -10 -3 0 -8 5 -11 10 -3 6 -1 10 4 10 6 0 11
-4 11 -10z m30 0 c0 -5 -5 -10 -11 -10 -5 0 -7 5 -4 10 3 6 8 10 11 10 2 0 4
-4 4 -10z m-35 -80 c-3 -5 -12 -10 -18 -10 -7 0 -6 4 3 10 19 12 23 12 15 0z
m-1000 -20 c10 -11 16 -20 13 -20 -3 0 -13 9 -23 20 -10 11 -16 20 -13 20 3 0
13 -9 23 -20z m621 -46 c-4 -14 -9 -24 -12 -21 -3 2 -2 17 2 31 3 15 9 25 11
22 3 -3 2 -17 -1 -32z m429 26 c3 -5 1 -10 -4 -10 -6 0 -11 5 -11 10 0 6 2 10
4 10 3 0 8 -4 11 -10z m-965 -65 c30 -30 52 -55 49 -55 -2 0 -29 25 -59 55
-30 30 -52 55 -49 55 2 0 29 -25 59 -55z m649 -14 c-6 -18 -14 -30 -17 -27 -2
3 1 19 8 36 16 40 23 33 9 -9z m-140 -55 c-9 -8 -10 -5 -5 14 3 14 7 34 7 45
1 11 4 5 6 -14 3 -19 -1 -39 -8 -45z m321 30 c0 -2 -7 -7 -16 -10 -8 -3 -12
-2 -9 4 6 10 25 14 25 6z m-653 -119 c4 -7 -12 3 -35 21 -23 19 -45 39 -49 45
-4 7 12 -3 35 -21 23 -19 45 -39 49 -45z m608 53 c-3 -5 -11 -10 -16 -10 -6 0
-7 5 -4 10 3 6 11 10 16 10 6 0 7 -4 4 -10z m-325 -46 c0 -8 -5 -12 -10 -9 -6
4 -8 11 -5 16 9 14 15 11 15 -7z m-175 -99 c27 -25 30 -30 10 -16 -43 30 -94
75 -70 62 11 -5 38 -27 60 -46z m115 -91 c0 -3 -13 4 -30 16 -16 12 -30 24
-30 26 0 3 14 -4 30 -16 17 -12 30 -24 30 -26z"/>
<path d="M3263 8543 c-3 -10 -8 -21 -10 -26 -3 -4 -1 -7 4 -6 4 1 21 -3 36 -9
37 -15 37 -15 37 6 0 21 -30 52 -49 52 -6 0 -14 -8 -18 -17z"/>
<path d="M3530 8135 c-7 -8 -10 -22 -6 -30 3 -9 2 -13 -4 -10 -6 3 -10 -3 -10
-13 0 -21 23 -46 33 -35 4 3 13 0 22 -7 12 -10 15 -10 15 0 0 7 7 10 16 6 12
-5 14 -1 8 16 -5 17 -3 20 10 15 20 -8 20 2 0 31 -9 13 -21 21 -27 19 -7 -2
-19 2 -28 10 -14 12 -18 11 -29 -2z"/>
<path d="M6635 8010 c-3 -5 1 -10 10 -10 9 0 13 5 10 10 -3 6 -8 10 -10 10 -2
0 -7 -4 -10 -10z"/>
<path d="M6630 7959 c0 -5 5 -7 10 -4 6 3 10 8 10 11 0 2 -4 4 -10 4 -5 0 -10
-5 -10 -11z"/>
<path d="M6509 7893 c-13 -15 -12 -15 9 -4 23 12 28 21 13 21 -5 0 -15 -7 -22
-17z"/>
<path d="M4370 7707 c0 -16 15 -30 43 -40 26 -9 20 5 -14 31 -21 17 -29 20
-29 9z"/>
<path d="M7116 7665 c-11 -8 -15 -15 -9 -15 6 0 16 7 23 15 16 19 11 19 -14 0z"/>
<path d="M6280 7664 c0 -8 32 -33 42 -34 3 0 4 9 1 20 -5 18 -43 30 -43 14z"/>
<path d="M6380 7660 c-8 -5 -10 -10 -5 -10 6 0 17 5 25 10 8 5 11 10 5 10 -5
0 -17 -5 -25 -10z"/>
<path d="M7360 7630 c20 -13 33 -13 25 0 -3 6 -14 10 -23 10 -15 0 -15 -2 -2
-10z"/>
<path d="M7397 7626 c-4 -10 -5 -21 -2 -24 9 -9 17 6 13 25 -3 17 -4 17 -11
-1z"/>
<path d="M6375 7620 c-3 -6 1 -7 9 -4 18 7 21 14 7 14 -6 0 -13 -4 -16 -10z"/>
<path d="M6245 7600 c-16 -7 -17 -9 -3 -9 9 -1 20 4 23 9 7 11 7 11 -20 0z"/>
<path d="M7080 7599 c0 -5 5 -7 10 -4 6 3 10 8 10 11 0 2 -4 4 -10 4 -5 0 -10
-5 -10 -11z"/>
<path d="M6320 7589 c0 -5 5 -7 10 -4 6 3 10 8 10 11 0 2 -4 4 -10 4 -5 0 -10
-5 -10 -11z"/>
<path d="M6350 7579 c0 -5 5 -7 10 -4 6 3 10 8 10 11 0 2 -4 4 -10 4 -5 0 -10
-5 -10 -11z"/>
<path d="M6450 7565 c7 -9 15 -13 17 -11 7 7 -7 26 -19 26 -6 0 -6 -6 2 -15z"/>
<path d="M6305 7542 c-7 -24 -8 -25 -14 -8 -8 21 -18 12 -17 -14 1 -9 13 -16
29 -18 15 -2 27 -9 27 -18 0 -8 5 -14 10 -14 17 0 11 18 -11 33 -12 9 -16 17
-10 21 6 4 18 -2 28 -14 21 -24 35 -26 26 -3 -4 11 -3 14 5 9 7 -4 12 -1 12 8
0 8 -8 17 -17 19 -17 4 -17 5 0 6 34 2 16 17 -22 18 -35 2 -40 -1 -46 -25z"/>
<path d="M6410 7540 c0 -5 7 -7 15 -4 8 4 15 8 15 10 0 2 -7 4 -15 4 -8 0 -15
-4 -15 -10z"/>
<path d="M6207 7533 c-4 -3 -1 -13 6 -21 10 -13 9 -15 -5 -9 -10 3 -20 1 -24
-5 -4 -6 -3 -8 4 -4 6 3 13 2 17 -3 3 -5 -3 -15 -12 -21 -16 -10 -15 -10 5 -5
27 8 30 -11 2 -20 -11 -3 -20 -10 -20 -15 0 -6 11 -5 26 0 38 15 51 12 57 -10
6 -23 3 -24 -25 -9 -15 8 -19 8 -14 0 4 -6 16 -16 27 -21 17 -10 21 -7 30 18
8 24 14 28 39 24 39 -6 39 14 0 23 -16 3 -32 15 -35 25 -3 10 -12 21 -20 24
-8 3 -15 12 -15 21 0 15 -31 21 -43 8z m32 -49 c-15 -18 -22 -13 -13 10 3 9
10 13 16 10 5 -3 4 -12 -3 -20z m26 -24 c-27 -12 -43 -12 -25 0 8 5 22 9 30 9
10 0 8 -3 -5 -9z"/>
<path d="M6460 7525 c0 -8 5 -15 10 -15 6 0 10 7 10 15 0 8 -4 15 -10 15 -5 0
-10 -7 -10 -15z"/>
<path d="M6425 7520 c-3 -5 1 -10 10 -10 9 0 13 5 10 10 -3 6 -8 10 -10 10 -2
0 -7 -4 -10 -10z"/>
<path d="M7137 7523 c-10 -10 -8 -41 3 -48 6 -3 7 1 4 9 -3 9 -1 16 5 16 6 0
11 7 11 15 0 16 -12 20 -23 8z"/>
<path d="M6501 7499 c-2 -25 24 -42 38 -25 9 10 8 16 -4 26 -13 11 -14 10 -9
-4 3 -9 1 -16 -4 -16 -6 0 -13 8 -15 18 -4 14 -5 14 -6 1z"/>
<path d="M6840 7499 c0 -5 5 -7 10 -4 6 3 10 8 10 11 0 2 -4 4 -10 4 -5 0 -10
-5 -10 -11z"/>
<path d="M6565 7490 c-3 -5 -1 -10 4 -10 6 0 11 5 11 10 0 6 -2 10 -4 10 -3 0
-8 -4 -11 -10z"/>
<path d="M6886 7461 c-4 -7 -5 -15 -2 -18 9 -9 19 4 14 18 -4 11 -6 11 -12 0z"/>
<path d="M6528 7453 c-24 -6 -23 -23 1 -23 10 0 21 7 25 15 6 15 4 16 -26 8z"/>
<path d="M7285 7430 c-3 -5 -1 -10 4 -10 6 0 11 5 11 10 0 6 -2 10 -4 10 -3 0
-8 -4 -11 -10z"/>
<path d="M5925 7402 c-28 -26 -30 -31 -21 -63 9 -33 9 -33 15 -9 5 17 18 29
41 37 19 7 27 12 18 12 -22 1 -24 21 -2 21 14 0 14 2 0 15 -18 19 -15 20 -51
-13z"/>
<path d="M6149 7383 c-13 -16 -12 -17 4 -4 16 13 21 21 13 21 -2 0 -10 -8 -17
-17z"/>
<path d="M6250 7360 c0 -5 5 -10 10 -10 6 0 10 5 10 10 0 6 -4 10 -10 10 -5 0
-10 -4 -10 -10z"/>
<path d="M5875 7350 c3 -5 8 -10 11 -10 2 0 4 5 4 10 0 6 -5 10 -11 10 -5 0
-7 -4 -4 -10z"/>
<path d="M5934 7333 c1 -22 24 -48 34 -39 3 4 1 11 -7 15 -10 6 -9 12 4 25 15
15 15 16 -8 16 -17 0 -24 -5 -23 -17z"/>
<path d="M6268 7343 c-10 -2 -18 -9 -18 -14 0 -13 12 -11 34 6 20 15 16 17
-16 8z"/>
<path d="M6487 7335 c-14 -7 -28 -11 -31 -8 -3 3 -12 0 -21 -7 -12 -10 -18
-10 -30 0 -12 10 -19 10 -27 2 -9 -9 -9 -12 0 -12 8 0 11 -9 8 -24 -4 -20 1
-27 26 -35 17 -6 35 -8 41 -4 6 4 7 1 2 -7 -12 -19 16 -31 33 -14 8 9 21 13
28 10 8 -3 11 0 8 8 -8 21 28 30 43 11 6 -10 16 -14 22 -10 6 3 11 1 11 -5 0
-8 -9 -10 -25 -6 -19 5 -23 3 -19 -9 4 -8 1 -15 -5 -15 -21 0 -11 -18 14 -24
29 -7 34 -25 6 -23 -11 0 -18 4 -15 8 4 7 -54 -18 -66 -28 -2 -2 2 -8 10 -13
12 -8 10 -10 -7 -10 -13 0 -23 -5 -23 -11 0 -6 11 -8 28 -4 20 4 33 1 42 -10
7 -8 18 -15 24 -15 6 0 3 7 -6 14 -25 19 -22 26 10 26 29 0 53 -29 50 -60 -1
-8 0 -31 1 -50 2 -29 4 -32 11 -15 l9 20 1 -20 c1 -11 3 -34 3 -52 1 -23 4
-29 12 -23 12 10 13 45 3 56 -3 3 -2 20 3 37 12 41 12 40 -11 34 -11 -3 -20
-1 -20 4 0 15 40 10 46 -6 9 -22 23 -18 17 5 -4 15 0 20 16 20 11 0 21 -5 21
-11 0 -8 12 -10 36 -6 30 5 34 4 24 -8 -10 -12 -10 -15 1 -15 20 0 68 51 62
66 -3 8 0 15 6 15 6 1 16 3 21 4 6 1 16 3 23 4 7 1 3 9 -10 20 -28 23 -28 27
-3 34 11 3 20 1 20 -4 0 -13 28 0 34 16 4 10 -3 12 -31 8 -24 -4 -34 -3 -30 4
9 14 -12 22 -49 17 -16 -2 -21 -1 -11 2 17 5 15 8 -9 20 -19 10 -31 11 -38 4
-5 -5 -6 -10 -2 -10 5 0 3 -6 -3 -14 -8 -9 -8 -16 -2 -20 5 -4 12 -2 16 4 4 6
12 4 22 -5 28 -29 -7 -35 -69 -13 -41 14 -49 33 -19 41 14 3 18 1 14 -9 -3 -8
0 -14 6 -14 6 0 11 4 11 9 0 5 3 16 6 25 5 13 0 15 -27 10 -32 -6 -33 -6 -14
9 l20 16 -20 1 c-16 0 -17 2 -5 10 13 8 12 11 -5 24 -11 8 -22 10 -25 6 -10
-16 -110 -3 -128 17 -22 23 -33 25 -65 8z m-43 -50 c4 -10 -1 -15 -14 -15 -20
0 -26 11 -13 23 10 11 20 8 27 -8z m221 -5 c3 -5 1 -10 -4 -10 -6 0 -11 5 -11
10 0 6 2 10 4 10 3 0 8 -4 11 -10z m-70 -70 c-3 -5 -11 -10 -16 -10 -6 0 -7 5
-4 10 3 6 11 10 16 10 6 0 7 -4 4 -10z m204 -73 c-24 -22 -25 -39 -1 -30 15 6
15 5 3 -11 -10 -12 -16 -14 -22 -5 -4 7 -14 9 -22 6 -9 -3 -18 0 -21 8 -3 9 0
12 11 8 11 -4 14 -1 11 13 -2 10 -10 18 -17 16 -7 -1 -10 2 -7 6 3 5 23 9 45
8 39 -1 39 -1 20 -19z m-249 -1 c0 -11 -19 -15 -25 -6 -3 5 1 10 9 10 9 0 16
-2 16 -4z"/>
<path d="M6620 7330 c0 -5 5 -10 11 -10 5 0 7 5 4 10 -3 6 -8 10 -11 10 -2 0
-4 -4 -4 -10z"/>
<path d="M6900 7320 c0 -5 5 -10 11 -10 5 0 7 5 4 10 -3 6 -8 10 -11 10 -2 0
-4 -4 -4 -10z"/>
<path d="M5992 7304 c-14 -16 -5 -18 17 -5 7 5 9 11 5 14 -5 3 -15 -1 -22 -9z"/>
<path d="M6250 7289 c0 -5 5 -7 10 -4 6 3 10 8 10 11 0 2 -4 4 -10 4 -5 0 -10
-5 -10 -11z"/>
<path d="M7070 7270 c-8 -5 -11 -12 -7 -16 4 -4 15 0 24 9 18 18 8 23 -17 7z"/>
<path d="M5985 7260 c-3 -5 -1 -10 4 -10 6 0 11 5 11 10 0 6 -2 10 -4 10 -3 0
-8 -4 -11 -10z"/>
<path d="M6840 7260 c-13 -8 -12 -10 3 -10 9 0 17 5 17 10 0 12 -1 12 -20 0z"/>
<path d="M6212 7230 c9 -14 14 -16 20 -7 13 20 9 27 -12 27 -18 0 -19 -3 -8
-20z"/>
<path d="M6327 7239 c-14 -8 -16 -14 -6 -25 15 -18 27 -18 46 1 14 14 16 14
27 0 10 -13 13 -13 24 6 12 19 12 21 -2 16 -8 -3 -18 -2 -21 3 -10 16 -35 12
-35 -5 0 -8 -7 -15 -16 -15 -14 0 -14 3 -4 15 15 18 12 18 -13 4z"/>
<path d="M6928 7243 c7 -3 16 -2 19 1 4 3 -2 6 -13 5 -11 0 -14 -3 -6 -6z"/>
<path d="M6258 7223 c-10 -3 -18 -9 -18 -14 0 -5 -9 -9 -20 -9 -11 0 -20 -4
-20 -10 0 -5 6 -7 13 -5 17 7 77 -47 77 -70 0 -12 3 -16 8 -9 4 6 22 17 40 25
19 8 32 21 32 33 0 18 -10 18 -71 0 -9 -2 -16 2 -16 11 0 10 8 13 26 9 24 -5
25 -4 6 7 -11 7 -24 18 -30 24 -5 6 -18 10 -27 8z m6 -28 c-4 -8 -10 -12 -15
-9 -11 6 -2 24 11 24 5 0 7 -7 4 -15z"/>
<path d="M6490 7173 c0 -8 5 -13 12 -11 18 6 21 25 3 25 -8 0 -15 -7 -15 -14z"/>
<path d="M6450 7163 c0 -15 19 -37 26 -31 3 4 -1 14 -10 23 -9 9 -16 13 -16 8z"/>
<path d="M6180 7119 c0 -5 5 -7 10 -4 6 3 10 8 10 11 0 2 -4 4 -10 4 -5 0 -10
-5 -10 -11z"/>
<path d="M6210 7110 c0 -5 7 -10 15 -10 8 0 15 5 15 10 0 6 -7 10 -15 10 -8 0
-15 -4 -15 -10z"/>
<path d="M6250 7098 c1 -22 26 -48 46 -47 16 0 15 2 -5 10 -17 7 -22 15 -18
29 3 13 0 20 -9 20 -8 0 -14 -6 -14 -12z"/>
<path d="M6071 7068 c-13 -13 -20 -17 -16 -9 5 9 3 12 -6 9 -7 -2 -15 -20 -16
-38 -2 -19 -9 -38 -16 -43 -8 -6 -6 -7 7 -3 14 5 17 2 12 -10 -3 -8 -6 -18 -6
-20 0 -2 -7 -4 -15 -4 -8 0 -25 -11 -37 -25 -12 -14 -26 -25 -31 -25 -6 0 -2
10 9 22 17 19 17 21 1 15 -14 -5 -16 -2 -11 18 5 19 2 25 -11 25 -9 0 -14 3
-11 8 2 4 -2 15 -9 25 -11 15 -14 15 -25 2 -18 -21 -29 -19 -42 10 -10 22 -12
23 -23 8 -7 -10 -10 -24 -7 -32 3 -9 1 -12 -6 -7 -7 4 -12 3 -12 -3 0 -5 5
-11 11 -13 8 -3 6 -10 -5 -21 -19 -19 -14 -37 11 -37 11 0 13 -5 8 -17 -15
-36 -17 -63 -6 -63 7 0 10 4 6 9 -3 5 -1 12 5 16 6 4 8 11 5 16 -4 5 -1 9 5 9
7 0 10 -6 7 -14 -3 -8 1 -17 9 -20 8 -3 14 -10 14 -16 0 -6 -4 -8 -10 -5 -16
10 -12 -11 5 -25 8 -7 15 -19 15 -26 0 -8 7 -14 15 -14 9 0 12 -6 8 -17 -5
-12 -2 -15 9 -10 10 3 19 0 22 -9 3 -7 0 -13 -6 -11 -6 1 -11 -8 -13 -20 -1
-16 4 -23 17 -23 10 0 18 -4 18 -9 0 -4 -11 -6 -25 -3 -31 6 -33 -6 -2 -17 20
-8 20 -10 4 -16 -13 -5 -23 -1 -34 14 -9 14 -21 20 -30 16 -9 -3 -22 0 -31 7
-8 7 -18 12 -21 10 -11 -5 -66 10 -88 24 -13 8 -23 10 -23 4 0 -15 -19 -12
-38 7 -16 16 -16 16 6 11 22 -6 23 -6 7 11 -15 17 -14 19 10 25 14 4 23 11 20
16 -4 6 -11 7 -17 4 -7 -5 -9 0 -6 14 4 13 2 20 -4 16 -5 -3 -8 -14 -5 -24 3
-13 -6 -23 -32 -37 -20 -10 -39 -22 -43 -28 -4 -5 -10 -9 -13 -7 -15 7 -23 0
-18 -18 3 -11 0 -20 -6 -20 -6 0 -11 5 -11 10 0 6 -4 10 -9 10 -5 0 -8 -11 -8
-23 0 -20 4 -23 26 -20 24 3 24 3 5 -6 -24 -10 -30 -29 -29 -83 0 -25 -4 -37
-13 -35 -7 1 -18 -9 -25 -23 -10 -20 -19 -24 -45 -22 -25 3 -32 -1 -32 -14 0
-13 3 -14 14 -5 10 9 15 8 19 -3 4 -9 -2 -17 -14 -21 -22 -7 -25 -21 -6 -28 7
-3 4 -6 -6 -6 -23 -1 -42 -20 -49 -49 -6 -22 -5 -23 11 -8 20 18 35 21 25 5
-3 -6 0 -15 7 -20 11 -7 10 -9 -5 -9 -18 0 -18 -1 -2 -19 17 -19 17 -19 -3
-14 -16 4 -21 1 -21 -13 0 -11 -7 -27 -14 -37 -8 -10 -12 -27 -9 -38 4 -15 2
-18 -13 -13 -16 6 -17 5 -6 -7 17 -18 15 -37 -4 -41 -24 -5 61 -55 107 -63 32
-6 45 -2 79 22 45 32 49 46 18 67 -15 11 -17 16 -8 16 20 -1 51 -25 43 -33
-14 -15 11 -6 38 14 16 11 26 25 23 31 -4 7 -2 8 5 4 15 -10 43 13 34 27 -3 6
-1 7 6 3 14 -9 71 30 71 49 0 7 8 16 18 18 16 4 16 5 0 6 -22 1 -23 8 -4 27 8
7 16 10 18 5 2 -5 14 -1 27 10 22 18 22 19 3 19 -11 0 -22 7 -26 15 -4 12 0
14 21 9 22 -6 25 -4 20 10 -4 10 -1 19 9 23 26 10 -21 36 -49 27 -12 -5 -26
-7 -30 -6 -5 1 -5 -7 -2 -19 6 -18 4 -20 -14 -14 -12 3 -21 2 -21 -3 0 -5 -11
-9 -25 -9 -13 0 -22 3 -20 7 3 5 -1 10 -7 13 -10 3 -9 8 2 22 14 17 14 17 -15
3 -16 -8 -38 -13 -49 -10 -11 2 -16 0 -12 -7 4 -6 17 -12 29 -12 17 -1 15 -3
-8 -8 -22 -5 -35 -3 -48 11 -10 10 -23 18 -30 18 -6 0 -3 8 7 18 13 12 20 14
23 5 6 -16 53 -17 53 -2 0 6 -9 9 -20 6 -14 -4 -20 0 -20 12 0 9 -6 23 -12 30
-11 11 -9 12 10 6 16 -5 22 -2 22 10 0 28 20 5 21 -23 0 -16 3 -21 6 -12 4 8
14 21 24 28 10 7 16 19 13 26 -6 16 40 48 59 40 8 -3 18 -1 21 5 8 12 -42 9
-65 -4 -11 -6 -12 -5 -1 6 14 16 16 33 2 24 -5 -3 -10 -2 -10 3 0 6 7 13 16
16 21 8 26 8 20 -3 -3 -5 1 -11 9 -15 9 -3 15 0 15 8 0 8 11 16 25 18 17 4 25
1 25 -8 0 -8 9 -14 20 -14 11 0 20 5 20 11 0 5 -5 7 -12 3 -6 -4 -8 -3 -5 2 3
6 21 11 40 12 50 3 57 -23 12 -40 -19 -6 -35 -16 -35 -20 0 -4 -7 -8 -16 -8
-8 0 -12 5 -8 11 4 7 -1 9 -12 7 -11 -2 -18 -10 -16 -16 1 -7 -5 -12 -13 -12
-24 0 -17 -20 8 -21 61 -3 71 -5 75 -18 3 -9 -2 -11 -19 -7 l-24 6 23 -11 c12
-7 22 -19 22 -29 0 -9 14 -21 35 -29 23 -8 35 -19 34 -29 -3 -32 1 -33 31 -12
17 12 28 26 25 31 -4 5 1 6 10 2 13 -4 16 -1 13 18 -2 18 -10 24 -30 26 -16 1
-28 -2 -28 -8 0 -5 -7 -9 -16 -9 -14 0 -15 2 -3 17 8 9 13 26 12 37 -1 14 0
16 3 4 10 -33 64 -35 64 -2 0 8 5 14 11 14 6 0 8 -8 5 -17 -3 -10 -1 -25 4
-33 7 -12 12 -11 28 8 11 12 24 22 31 22 16 0 13 26 -5 45 -14 13 -19 14 -25
3 -7 -10 -9 -10 -9 0 0 6 -4 12 -10 12 -5 0 -10 -7 -10 -15 0 -9 -6 -12 -15
-9 -8 4 -15 1 -15 -6 0 -6 -5 -8 -11 -4 -7 4 -1 15 16 30 37 32 18 31 -25 -1
-38 -28 -71 -35 -50 -11 6 8 21 16 33 18 12 2 26 13 32 26 12 27 31 29 44 4 5
-10 19 -18 31 -19 20 -2 22 2 17 32 -4 21 -1 35 6 38 24 9 0 16 -28 9 -21 -6
-25 -10 -14 -14 9 -4 19 -16 22 -27 5 -20 4 -20 -19 -3 -13 9 -24 25 -24 34 0
9 -5 20 -11 24 -8 5 -10 -1 -7 -20 4 -20 2 -24 -7 -16 -13 11 -14 34 -2 46 13
13 7 23 -10 17 -14 -4 -13 -1 5 18 19 20 25 22 42 11 29 -18 36 -15 16 7 -16
18 -16 22 -3 41 12 18 15 19 21 5 4 -11 2 -14 -6 -9 -8 5 -9 2 -5 -10 4 -10 7
-20 7 -22 0 -3 5 -2 10 1 6 4 19 -4 30 -17 26 -30 26 -13 0 19 -11 14 -17 29
-14 34 3 5 -1 18 -9 30 -9 13 -17 16 -22 10 -10 -17 -28 -13 -21 5 3 8 2 12
-4 9 -6 -3 -10 -13 -10 -21 0 -11 -4 -12 -18 -5 -10 5 -24 6 -32 1 -9 -6 -20
-2 -32 12 -22 26 -23 39 -3 32 8 -4 15 -1 15 5 0 6 7 8 15 5 9 -4 15 0 15 10
0 9 5 16 10 16 6 0 10 7 10 15 0 8 3 14 8 13 4 -1 18 4 31 11 21 12 23 11 18
-3 -4 -9 -2 -16 3 -16 15 0 30 37 24 57 -4 14 -1 12 16 -6 16 -19 23 -22 33
-12 9 9 9 14 -3 21 -8 5 -15 13 -15 17 0 4 -9 7 -20 6 -13 -2 -10 2 10 12 26
12 27 14 8 15 -17 0 -21 5 -18 25 1 14 2 25 1 25 -1 0 -12 -10 -25 -22z m-201
-138 c0 -5 -5 -10 -11 -10 -5 0 -7 5 -4 10 3 6 8 10 11 10 2 0 4 -4 4 -10z
m60 -110 c0 -5 -5 -10 -11 -10 -5 0 -7 5 -4 10 3 6 8 10 11 10 2 0 4 -4 4 -10z
m48 -20 c-7 -11 -16 -20 -20 -20 -13 0 -9 28 5 33 23 10 27 7 15 -13z m-8 -50
c0 -5 -4 -10 -10 -10 -5 0 -10 5 -10 10 0 6 5 10 10 10 6 0 10 -4 10 -10z
m-315 -50 c3 -5 2 -10 -4 -10 -5 0 -13 5 -16 10 -3 6 -2 10 4 10 5 0 13 -4 16
-10z m-28 -20 c7 -10 9 -21 5 -24 -4 -2 -12 7 -19 20 -13 29 -3 32 14 4z m68
-11 c11 -17 2 -18 -25 -4 -24 14 -24 14 -3 15 12 0 25 -5 28 -11z m75 -9 c0
-5 -7 -10 -16 -10 -8 0 -12 5 -9 10 3 6 10 10 16 10 5 0 9 -4 9 -10z m210 -30
c0 -9 -31 -30 -44 -30 -12 0 -6 28 7 33 20 9 37 8 37 -3z m-315 -19 c3 -6 -3
-15 -14 -20 -16 -9 -18 -8 -14 9 6 21 18 26 28 11z m-52 -16 c-3 -9 -8 -14
-10 -11 -3 3 -2 9 2 15 9 16 15 13 8 -4z m297 7 c0 -4 -9 -13 -21 -20 -12 -8
-18 -19 -15 -28 6 -16 -10 -19 -19 -4 -9 15 22 60 40 60 8 0 15 -3 15 -8z
m-260 -57 c0 -8 -4 -15 -9 -15 -5 0 -11 7 -15 15 -3 9 0 15 9 15 8 0 15 -7 15
-15z m314 -1 c3 -8 2 -12 -4 -9 -6 3 -10 10 -10 16 0 14 7 11 14 -7z m-69 -54
c-3 -5 -10 -10 -16 -10 -5 0 -9 5 -9 10 0 6 7 10 16 10 8 0 12 -4 9 -10z m-95
-60 c0 -5 -4 -10 -10 -10 -5 0 -10 5 -10 10 0 6 5 10 10 10 6 0 10 -4 10 -10z
m-188 -83 c-18 -20 -30 -14 -13 7 6 8 11 18 10 22 -4 22 3 27 11 9 5 -13 3
-26 -8 -38z m-75 17 c-3 -3 -12 -4 -19 -1 -8 3 -5 6 6 6 11 1 17 -2 13 -5z
m116 -19 c4 -8 2 -17 -3 -20 -6 -4 -10 3 -10 14 0 25 6 27 13 6z m-178 -13
c-3 -3 -11 0 -18 7 -9 10 -8 11 6 5 10 -3 15 -9 12 -12z m25 -12 c0 -5 -5 -10
-11 -10 -5 0 -7 5 -4 10 3 6 8 10 11 10 2 0 4 -4 4 -10z m118 -10 c-7 -11 -19
-20 -27 -20 -11 0 -10 5 5 19 25 26 37 26 22 1z m-148 -25 c0 -8 -3 -14 -7
-14 -5 1 -10 1 -13 -1 -22 -8 -50 -8 -45 0 3 5 15 10 25 10 10 0 22 5 25 10 9
14 15 12 15 -5z m226 -10 c-23 -17 -36 -19 -36 -6 0 5 8 12 18 14 32 9 37 6
18 -8z m-155 -19 c12 7 12 5 1 -9 -8 -9 -11 -20 -8 -25 3 -5 -2 -9 -10 -9 -10
0 -14 7 -11 19 3 10 1 18 -5 18 -5 0 -6 5 -2 11 5 8 9 8 14 -1 5 -8 13 -9 21
-4z m-61 -6 c0 -5 -4 -10 -10 -10 -5 0 -10 5 -10 10 0 6 5 10 10 10 6 0 10 -4
10 -10z m-80 -14 c0 -3 -4 -8 -10 -11 -5 -3 -10 -1 -10 4 0 6 5 11 10 11 6 0
10 -2 10 -4z m218 -8 c9 -9 12 -9 12 2 0 7 3 11 6 8 7 -8 -18 -48 -31 -48 -5
0 -16 4 -24 9 -12 8 -12 11 0 25 17 19 22 19 37 4z m-96 -80 c-7 -7 -12 -8
-12 -2 0 14 12 26 19 19 2 -3 -1 -11 -7 -17z"/>
<path d="M6210 7086 c0 -2 7 -7 16 -10 8 -3 12 -2 9 4 -6 10 -25 14 -25 6z"/>
<path d="M6590 7080 c0 -5 5 -10 11 -10 5 0 7 5 4 10 -3 6 -8 10 -11 10 -2 0
-4 -4 -4 -10z"/>
<path d="M5615 7070 c-3 -5 -2 -10 4 -10 5 0 13 5 16 10 3 6 2 10 -4 10 -5 0
-13 -4 -16 -10z"/>
<path d="M6005 7070 c-3 -5 -1 -10 4 -10 6 0 11 5 11 10 0 6 -2 10 -4 10 -3 0
-8 -4 -11 -10z"/>
<path d="M5805 7040 c3 -5 8 -10 11 -10 2 0 4 5 4 10 0 6 -5 10 -11 10 -5 0
-7 -4 -4 -10z"/>
<path d="M6720 7029 c0 -17 3 -18 20 -9 11 6 20 12 20 14 0 2 -9 6 -20 9 -15
4 -20 0 -20 -14z"/>
<path d="M5860 7030 c0 -5 5 -10 11 -10 5 0 7 5 4 10 -3 6 -8 10 -11 10 -2 0
-4 -4 -4 -10z"/>
<path d="M6225 7025 c-16 -8 -23 -14 -14 -15 8 0 24 7 35 15 23 18 18 18 -21
0z"/>
<path d="M6275 7030 c-3 -5 -1 -10 4 -10 6 0 11 5 11 10 0 6 -2 10 -4 10 -3 0
-8 -4 -11 -10z"/>
<path d="M6310 7025 c-18 -22 -8 -33 12 -13 10 9 13 20 9 23 -5 2 -14 -2 -21
-10z"/>
<path d="M5615 7020 c-3 -5 -1 -10 4 -10 6 0 11 5 11 10 0 6 -2 10 -4 10 -3 0
-8 -4 -11 -10z"/>
<path d="M6709 6973 c-13 -16 -12 -17 4 -4 16 13 21 21 13 21 -2 0 -10 -8 -17
-17z"/>
<path d="M5615 6950 c3 -5 11 -10 16 -10 6 0 7 5 4 10 -3 6 -11 10 -16 10 -6
0 -7 -4 -4 -10z"/>
<path d="M6126 6943 c-4 -5 -13 -8 -18 -8 -6 0 -13 -6 -15 -12 -3 -7 -1 -13 4
-13 15 0 49 28 42 34 -3 3 -9 3 -13 -1z"/>
<path d="M6115 6899 c-10 -15 -4 -17 35 -11 29 4 32 6 15 13 -29 11 -43 11
-50 -2z"/>
<path d="M5970 6865 c-13 -14 -21 -25 -18 -25 16 0 78 32 78 40 0 19 -37 10
-60 -15z"/>
<path d="M5350 6835 c0 -8 4 -15 10 -15 5 0 7 7 4 15 -4 8 -8 15 -10 15 -2 0
-4 -7 -4 -15z"/>
<path d="M5655 6839 c-4 -6 -5 -12 -2 -15 2 -3 7 2 10 11 7 17 1 20 -8 4z"/>
<path d="M5795 6820 c3 -5 8 -10 11 -10 2 0 4 5 4 10 0 6 -5 10 -11 10 -5 0
-7 -4 -4 -10z"/>
<path d="M6140 6820 c0 -5 5 -10 11 -10 5 0 7 5 4 10 -3 6 -8 10 -11 10 -2 0
-4 -4 -4 -10z"/>
<path d="M5235 6806 c11 -8 24 -12 29 -8 5 3 1 9 -10 13 -31 12 -39 10 -19 -5z"/>
<path d="M5761 6794 c0 -11 3 -14 6 -6 3 7 2 16 -1 19 -3 4 -6 -2 -5 -13z"/>
<path d="M5820 6800 c-8 -5 -10 -10 -5 -10 6 0 17 5 25 10 8 5 11 10 5 10 -5
0 -17 -5 -25 -10z"/>
<path d="M5215 6780 c4 -6 11 -8 16 -5 14 9 11 15 -7 15 -8 0 -12 -5 -9 -10z"/>
<path d="M5440 6780 c0 -5 9 -10 19 -10 11 0 23 5 26 10 4 6 -5 10 -19 10 -14
0 -26 -4 -26 -10z"/>
<path d="M5850 6769 c0 -11 5 -17 10 -14 6 3 10 13 10 21 0 8 -4 14 -10 14 -5
0 -10 -9 -10 -21z"/>
<path d="M5475 6759 c-4 -6 -13 -8 -21 -5 -8 3 -14 0 -14 -5 0 -7 9 -9 23 -5
12 3 25 6 30 6 11 0 9 20 -2 20 -6 0 -13 -5 -16 -11z"/>
<path d="M5796 6761 c-3 -5 1 -12 10 -15 22 -8 25 -4 9 11 -8 7 -16 9 -19 4z"/>
<path d="M5730 6749 c0 -5 5 -7 10 -4 6 3 10 8 10 11 0 2 -4 4 -10 4 -5 0 -10
-5 -10 -11z"/>
<path d="M5881 6741 c-1 -8 -8 -23 -18 -33 -22 -24 -13 -31 14 -10 15 13 19
22 13 37 -5 12 -9 14 -9 6z"/>
<path d="M6015 6740 c-3 -5 -1 -10 4 -10 6 0 11 5 11 10 0 6 -2 10 -4 10 -3 0
-8 -4 -11 -10z"/>
<path d="M5802 6716 c4 -23 34 -30 42 -9 4 10 2 13 -8 10 -7 -3 -19 0 -26 6
-9 9 -11 8 -8 -7z"/>
<path d="M5748 6713 c7 -3 16 -2 19 1 4 3 -2 6 -13 5 -11 0 -14 -3 -6 -6z"/>
<path d="M6123 6693 c-34 -39 -28 -52 7 -15 17 18 30 35 30 38 0 11 -17 0 -37
-23z"/>
<path d="M6265 6660 c-3 -6 1 -7 9 -4 18 7 21 14 7 14 -6 0 -13 -4 -16 -10z"/>
<path d="M4882 6620 c1 -16 4 -30 7 -30 11 0 12 48 2 55 -6 3 -9 -8 -9 -25z"/>
<path d="M5760 6620 c0 -5 5 -10 11 -10 5 0 7 5 4 10 -3 6 -8 10 -11 10 -2 0
-4 -4 -4 -10z"/>
<path d="M5694 6549 c-5 -9 -2 -10 9 -6 9 3 18 1 20 -6 2 -7 4 -6 3 2 -1 19
-22 25 -32 10z"/>
<path d="M5760 6535 c0 -3 9 -14 20 -25 12 -12 20 -15 20 -7 0 7 -9 18 -20 25
-11 7 -20 10 -20 7z"/>
<path d="M5320 6510 c0 -5 5 -10 10 -10 6 0 10 5 10 10 0 6 -4 10 -10 10 -5 0
-10 -4 -10 -10z"/>
<path d="M5460 6511 c0 -6 5 -13 10 -16 6 -3 10 1 10 9 0 9 -4 16 -10 16 -5 0
-10 -4 -10 -9z"/>
<path d="M5680 6510 c-12 -8 -11 -10 8 -10 12 0 22 5 22 10 0 13 -11 13 -30 0z"/>
<path d="M5730 6506 c0 -2 7 -6 15 -10 8 -3 15 -1 15 4 0 6 -7 10 -15 10 -8 0
-15 -2 -15 -4z"/>
<path d="M5820 6480 c0 -5 5 -10 11 -10 5 0 7 5 4 10 -3 6 -8 10 -11 10 -2 0
-4 -4 -4 -10z"/>
<path d="M5658 6473 c7 -3 16 -2 19 1 4 3 -2 6 -13 5 -11 0 -14 -3 -6 -6z"/>
<path d="M5740 6470 c-13 -8 -13 -10 2 -10 9 0 20 5 23 10 8 13 -5 13 -25 0z"/>
<path d="M5340 6430 c0 -5 5 -10 10 -10 6 0 10 5 10 10 0 6 -4 10 -10 10 -5 0
-10 -4 -10 -10z"/>
<path d="M5184 6418 c-5 -7 -9 -28 -10 -47 l-1 -34 17 23 c18 24 24 70 9 70
-4 0 -11 -6 -15 -12z"/>
<path d="M5233 6408 c2 -7 -2 -21 -11 -31 -8 -9 -12 -20 -8 -24 4 -5 12 0 18
11 10 17 11 17 23 -5 10 -20 10 -28 -2 -46 -12 -20 -11 -23 2 -23 8 0 15 6 15
13 0 7 7 22 16 33 13 16 15 16 10 2 -3 -10 -1 -18 5 -18 6 0 9 8 7 18 -2 9
-11 16 -21 16 -15 -2 -22 14 -18 38 0 4 -9 12 -20 19 -17 9 -20 8 -16 -3z"/>
<path d="M5310 6411 c0 -5 -6 -11 -12 -14 -7 -2 -5 -3 5 -2 10 2 17 -4 18 -13
0 -13 2 -13 8 3 5 11 7 23 4 28 -6 10 -23 9 -23 -2z"/>
<path d="M5860 6400 c0 -5 5 -10 11 -10 5 0 7 5 4 10 -3 6 -8 10 -11 10 -2 0
-4 -4 -4 -10z"/>
<path d="M5893 6395 c0 -8 4 -12 9 -9 5 3 6 10 3 15 -9 13 -12 11 -12 -6z"/>
<path d="M5345 6390 c-3 -5 -1 -10 4 -10 6 0 11 5 11 10 0 6 -2 10 -4 10 -3 0
-8 -4 -11 -10z"/>
<path d="M5140 6379 c0 -5 5 -7 10 -4 6 3 10 8 10 11 0 2 -4 4 -10 4 -5 0 -10
-5 -10 -11z"/>
<path d="M5340 6350 c-13 -8 -12 -10 3 -10 9 0 17 5 17 10 0 12 -1 12 -20 0z"/>
<path d="M2570 6888 c0 -7 7 -21 15 -32 13 -17 14 -17 12 9 -2 28 -27 49 -27
23z"/>
<path d="M3765 6289 c-4 -6 -13 -8 -21 -5 -8 3 -14 -1 -14 -8 0 -8 -6 -16 -12
-19 -10 -4 -10 -7 -1 -17 10 -11 8 -17 -8 -31 -20 -17 -19 -39 2 -39 5 0 20
-9 32 -20 12 -12 23 -16 25 -10 2 5 8 10 14 10 6 0 8 -7 5 -14 -4 -10 -1 -13
8 -10 8 3 11 13 8 21 -4 11 -2 14 5 9 8 -5 12 3 12 26 0 35 -19 88 -32 88 -4
0 -5 7 -2 15 7 17 -11 21 -21 4z"/>
<path d="M3815 6250 c-3 -5 -1 -10 4 -10 6 0 11 5 11 10 0 6 -2 10 -4 10 -3 0
-8 -4 -11 -10z"/>
<path d="M3030 6022 c-19 -6 -33 -30 -36 -59 -2 -20 0 -21 19 -10 12 7 25 16
28 21 4 5 12 5 18 2 6 -4 11 -2 11 3 0 6 -4 11 -9 11 -5 0 -11 8 -13 18 -2 12
-9 17 -18 14z"/>
<path d="M3010 5940 c0 -5 5 -10 11 -10 5 0 7 5 4 10 -3 6 -8 10 -11 10 -2 0
-4 -4 -4 -10z"/>
<path d="M8050 5850 c0 -6 -6 -10 -12 -9 -39 5 -62 -30 -36 -54 37 -34 93 -42
81 -11 -3 8 0 14 6 14 6 0 11 -9 11 -20 0 -11 3 -20 8 -20 7 0 46 71 40 74 -2
1 -14 10 -27 21 -14 11 -21 14 -17 8 4 -7 3 -13 -2 -13 -4 0 -14 -15 -22 -34
-13 -33 -14 -34 -44 -21 -42 18 -43 31 -2 45 33 11 50 30 26 30 -5 0 -10 -5
-10 -10z"/>
<path d="M8048 5822 c-30 -4 -39 -22 -10 -22 18 0 50 17 42 22 -3 2 -17 2 -32
0z"/>
<path d="M6670 5643 c-8 -10 -15 -28 -14 -40 1 -13 -3 -23 -7 -23 -5 0 -9 -5
-9 -11 0 -5 5 -7 12 -3 7 4 8 3 4 -4 -4 -7 -17 -9 -31 -6 -12 3 -26 1 -29 -4
-3 -5 0 -10 7 -9 34 1 46 -5 49 -25 2 -12 9 -23 16 -26 9 -3 10 3 2 23 -13 33
-13 32 4 38 10 4 12 0 9 -14 -4 -13 0 -19 12 -19 15 0 16 7 10 53 -4 28 -10
60 -14 70 -6 16 -7 16 -21 0z"/>
<path d="M6610 5491 c0 -5 7 -11 14 -14 10 -4 13 -1 9 9 -6 15 -23 19 -23 5z"/>
<path d="M6695 5430 c-3 -5 -1 -10 4 -10 6 0 11 5 11 10 0 6 -2 10 -4 10 -3 0
-8 -4 -11 -10z"/>
<path d="M6650 5379 c0 -5 5 -7 10 -4 6 3 10 8 10 11 0 2 -4 4 -10 4 -5 0 -10
-5 -10 -11z"/>
<path d="M8005 5350 c3 -5 11 -10 16 -10 6 0 7 5 4 10 -3 6 -11 10 -16 10 -6
0 -7 -4 -4 -10z"/>
<path d="M6640 5181 c0 -6 4 -13 10 -16 6 -3 7 1 4 9 -7 18 -14 21 -14 7z"/>
<path d="M6630 5116 c14 -18 13 -19 -7 -14 -13 4 -23 2 -23 -3 0 -5 9 -9 20
-9 11 0 20 -4 20 -10 0 -5 -8 -10 -17 -10 -15 0 -15 -2 -4 -9 9 -6 21 -5 33 2
10 7 14 13 8 15 -6 2 -8 7 -5 12 2 4 -5 16 -18 26 -21 19 -21 19 -7 0z"/>
<path d="M6538 5063 c7 -3 16 -2 19 1 4 3 -2 6 -13 5 -11 0 -14 -3 -6 -6z"/>
<path d="M6662 4850 c-7 -11 -8 -20 -2 -20 5 0 14 9 20 20 6 11 7 20 3 20 -5
0 -14 -9 -21 -20z"/>
<path d="M4866 4841 c-18 -20 -20 -31 -6 -31 6 0 10 7 10 16 0 10 6 14 15 10
8 -3 15 -1 15 4 0 18 -18 19 -34 1z"/>
<path d="M6650 4809 c0 -5 5 -7 10 -4 6 3 10 8 10 11 0 2 -4 4 -10 4 -5 0 -10
-5 -10 -11z"/>
<path d="M4829 4791 c8 -5 20 -7 28 -4 7 3 13 0 13 -6 0 -6 4 -11 10 -11 5 0
7 7 4 15 -4 9 -19 15 -38 15 -22 0 -27 -3 -17 -9z"/>
<path d="M7490 4770 c0 -5 5 -10 10 -10 6 0 10 5 10 10 0 6 -4 10 -10 10 -5 0
-10 -4 -10 -10z"/>
<path d="M7030 4731 c0 -6 4 -13 10 -16 6 -3 7 1 4 9 -7 18 -14 21 -14 7z"/>
<path d="M7500 4719 c0 -5 5 -7 10 -4 6 3 10 8 10 11 0 2 -4 4 -10 4 -5 0 -10
-5 -10 -11z"/>
<path d="M6010 4610 c-13 -8 -12 -10 3 -10 9 0 17 5 17 10 0 12 -1 12 -20 0z"/>
<path d="M6690 4450 c0 -5 5 -10 10 -10 6 0 10 5 10 10 0 6 -4 10 -10 10 -5 0
-10 -4 -10 -10z"/>
<path d="M6647 4439 c7 -7 15 -10 18 -7 3 3 -2 9 -12 12 -14 6 -15 5 -6 -5z"/>
<path d="M6715 4401 c-3 -6 4 -9 15 -8 11 1 20 5 20 9 0 11 -28 10 -35 -1z"/>
<path d="M6682 4380 c7 -10 14 -18 15 -16 6 6 -9 36 -18 36 -5 0 -4 -9 3 -20z"/>
<path d="M6760 4369 c0 -5 5 -7 10 -4 6 3 10 8 10 11 0 2 -4 4 -10 4 -5 0 -10
-5 -10 -11z"/>
<path d="M6716 4223 c-6 -14 -5 -15 5 -6 7 7 10 15 7 18 -3 3 -9 -2 -12 -12z"/>
<path d="M6325 4210 c3 -5 11 -10 16 -10 6 0 7 5 4 10 -3 6 -11 10 -16 10 -6
0 -7 -4 -4 -10z"/>
<path d="M6276 4194 c-11 -8 -16 -14 -10 -14 13 0 39 18 34 24 -3 2 -14 -2
-24 -10z"/>
<path d="M6246 4161 c-4 -7 -5 -15 -2 -18 9 -9 19 4 14 18 -4 11 -6 11 -12 0z"/>
<path d="M7477 4094 c-4 -4 -7 -14 -7 -23 0 -11 3 -12 11 -4 6 6 10 16 7 23
-2 6 -7 8 -11 4z"/>
<path d="M3735 3970 c-3 -5 -1 -10 4 -10 6 0 11 5 11 10 0 6 -2 10 -4 10 -3 0
-8 -4 -11 -10z"/>
<path d="M6155 3850 c-3 -5 -1 -10 4 -10 6 0 11 5 11 10 0 6 -2 10 -4 10 -3 0
-8 -4 -11 -10z"/>
<path d="M6058 3783 c7 -3 16 -2 19 1 4 3 -2 6 -13 5 -11 0 -14 -3 -6 -6z"/>
<path d="M6158 3743 c7 -3 16 -2 19 1 4 3 -2 6 -13 5 -11 0 -14 -3 -6 -6z"/>
<path d="M6925 3740 c-3 -5 -1 -10 4 -10 6 0 11 5 11 10 0 6 -2 10 -4 10 -3 0
-8 -4 -11 -10z"/>
<path d="M5596 3714 c-6 -15 -4 -15 11 -3 10 7 20 15 22 16 2 2 -3 3 -11 3 -9
0 -19 -7 -22 -16z"/>
<path d="M5610 3640 c0 -5 5 -10 10 -10 6 0 10 5 10 10 0 6 -4 10 -10 10 -5 0
-10 -4 -10 -10z"/>
<path d="M5577 3633 c-4 -3 -7 -11 -7 -17 0 -6 5 -5 12 2 6 6 9 14 7 17 -3 3
-9 2 -12 -2z"/>
<path d="M6880 3629 c0 -5 5 -7 10 -4 6 3 10 8 10 11 0 2 -4 4 -10 4 -5 0 -10
-5 -10 -11z"/>
<path d="M6540 3615 c-7 -8 -9 -15 -6 -15 4 0 14 7 22 15 9 8 11 15 6 15 -5 0
-15 -7 -22 -15z"/>
<path d="M6807 3613 c-9 -9 -9 -63 1 -63 4 0 8 16 9 35 2 37 1 39 -10 28z"/>
<path d="M6650 3600 c0 -5 5 -10 11 -10 5 0 7 5 4 10 -3 6 -8 10 -11 10 -2 0
-4 -4 -4 -10z"/>
<path d="M6500 3579 c0 -5 5 -7 10 -4 6 3 10 8 10 11 0 2 -4 4 -10 4 -5 0 -10
-5 -10 -11z"/>
<path d="M6415 3520 c-3 -5 -1 -10 4 -10 6 0 11 5 11 10 0 6 -2 10 -4 10 -3 0
-8 -4 -11 -10z"/>
<path d="M5750 3452 c0 -6 -8 -8 -19 -5 -10 3 -22 -1 -26 -7 -5 -8 -3 -11 6
-8 16 6 38 -20 39 -44 0 -10 6 -18 14 -18 9 0 13 -8 9 -22 -4 -20 -3 -21 7 -5
6 9 17 17 24 17 8 0 21 12 31 26 13 21 14 28 3 42 -7 9 -12 18 -13 19 0 0 -17
4 -37 8 -24 5 -38 3 -38 -3z"/>
<path d="M5135 3440 c3 -5 11 -10 16 -10 6 0 7 5 4 10 -3 6 -11 10 -16 10 -6
0 -7 -4 -4 -10z"/>
<path d="M5060 3401 c0 -10 19 -25 25 -20 1 2 -3 10 -11 17 -8 7 -14 8 -14 3z"/>
<path d="M5110 3390 c0 -5 5 -10 11 -10 5 0 7 5 4 10 -3 6 -8 10 -11 10 -2 0
-4 -4 -4 -10z"/>
<path d="M5035 3380 c-3 -5 -1 -10 4 -10 6 0 11 5 11 10 0 6 -2 10 -4 10 -3 0
-8 -4 -11 -10z"/>
<path d="M4380 3249 c0 -5 5 -7 10 -4 6 3 10 8 10 11 0 2 -4 4 -10 4 -5 0 -10
-5 -10 -11z"/>
<path d="M5076 3174 c-5 -14 -4 -15 9 -4 17 14 19 20 6 20 -5 0 -12 -7 -15
-16z"/>
<path d="M5448 2973 c7 -3 16 -2 19 1 4 3 -2 6 -13 5 -11 0 -14 -3 -6 -6z"/>
<path d="M7150 8314 c0 -8 5 -12 10 -9 6 3 10 10 10 16 0 5 -4 9 -10 9 -5 0
-10 -7 -10 -16z"/>
<path d="M7908 8193 c6 -2 18 -2 25 0 6 3 1 5 -13 5 -14 0 -19 -2 -12 -5z"/>
<path d="M7870 8176 c0 -7 9 -16 20 -19 11 -3 20 -2 20 2 0 3 -9 12 -20 19
-16 10 -20 10 -20 -2z"/>
<path d="M7380 8119 c0 -5 5 -7 10 -4 6 3 10 8 10 11 0 2 -4 4 -10 4 -5 0 -10
-5 -10 -11z"/>
<path d="M7500 7951 c0 -6 4 -13 10 -16 6 -3 7 1 4 9 -7 18 -14 21 -14 7z"/>
<path d="M7478 7903 c-16 -2 -28 -9 -28 -14 0 -6 9 -7 20 -4 13 4 20 2 20 -7
0 -10 2 -11 8 0 5 8 16 10 28 5 17 -6 17 -5 5 10 -7 9 -16 16 -20 16 -3 -1
-18 -4 -33 -6z"/>
<path d="M7930 4080 c0 -5 5 -10 10 -10 6 0 10 5 10 10 0 6 -4 10 -10 10 -5 0
-10 -4 -10 -10z"/>
<path d="M7820 4069 c0 -5 14 -9 30 -9 39 0 39 15 0 16 -17 1 -30 -3 -30 -7z"/>
<path d="M7749 3991 c9 -6 10 -11 2 -15 -15 -10 -14 -26 2 -20 20 7 19 44 -1
44 -13 0 -14 -2 -3 -9z"/>
<path d="M6785 3170 c3 -5 10 -10 16 -10 5 0 9 5 9 10 0 6 -7 10 -16 10 -8 0
-12 -4 -9 -10z"/>
<path d="M6830 3170 c-9 -6 -10 -10 -3 -10 6 0 15 5 18 10 8 12 4 12 -15 0z"/>
<path d="M6731 3136 c-9 -11 -8 -15 5 -20 24 -9 28 -7 15 7 -6 8 -8 17 -4 20
3 4 4 7 1 7 -3 0 -11 -6 -17 -14z"/>
<path d="M6757 3099 c-9 -5 -21 -8 -25 -5 -4 2 -8 -7 -9 -22 l-2 -27 16 23 c8
12 24 22 34 22 11 0 19 5 19 10 0 13 -10 12 -33 -1z"/>
<path d="M6870 2990 c0 -5 5 -10 10 -10 6 0 10 5 10 10 0 6 -4 10 -10 10 -5 0
-10 -4 -10 -10z"/>
<path d="M6670 2664 c0 -8 5 -12 10 -9 6 3 10 10 10 16 0 5 -4 9 -10 9 -5 0
-10 -7 -10 -16z"/>
</g>
</svg>
